/* XPM */
static char *result[] = {
/* columns rows colors chars-per-pixel */
"32 32 14 1 ",
"  c black",
". c #010000",
"X c #000100",
"o c #000001",
"O c #010001",
"+ c #000101",
"@ c #FFE000",
"# c #FEE100",
"$ c #FFE100",
"% c #FFE101",
"& c #FCE638",
"* c #FDE638",
"= c #FDE738",
"- c #FDE639",
/* pixels */
"         .         XX           ",
"               .    XX     O    ",
" o      .   o           X    o  ",
"         o  X       X     o     ",
"   o  .          . .  .  +      ",
"  o     o      X  X     . . .   ",
"  o  . X           o O .        ",
"  O  X  .    .    X .o  o       ",
"      o       .X      o     XX  ",
"     . .     XX    o     o    . ",
"   X  .. o    X  XX          X. ",
"  .    . .   .$$$$       o  X   ",
"     o    XX$$#$#$$$    X      X",
"   o  .   Oo%$*&**%%     X      ",
"    .X  .o $$**-=**%%      X  X ",
"X    .   X @$*****&$@       XX  ",
"    .     X$$******$$  .     o  ",
"X.    .    $#******$$ +   X  .o ",
"   +        $$*&**$$     X     .",
"  X  . X    $$$$$%#$   .   ooX  ",
"        X  o X#$$$X X  .  .    X",
"   .X              . .    X  X .",
"    o   X        o X o o  o oo  ",
" o  X     .   . .    .        X ",
"           .    .    O        X ",
"   Xo  X    oX  .         X .o. ",
"       X  X.oooo    .  XoX . o .",
"      o  .    o   X  .         X",
"  .     X X    . . oX        X  ",
"       . X   X . o     + X+  o  ",
" o        X   .   ..    X o     ",
"  o. X X                .  .    "
};
