/* XPM */
static char *result[] = {
/* columns rows colors chars-per-pixel */
"32 32 19 1 ",
"  c black",
". c #010000",
"X c #000100",
"o c #010100",
"O c #000001",
"+ c #010001",
"@ c #000101",
"# c #010101",
"$ c #1E0476",
"% c #1F0476",
"& c #1E0576",
"* c #1F0576",
"= c #1E0477",
"- c #1F0477",
"; c #1F0577",
": c #CCD9FE",
"> c #CCD8FF",
", c #CCD9FF",
"< c #CDD9FF",
/* pixels */
"               OX               ",
" X     .                .   X  O",
" ..        .  X      X O        ",
" O             .      o .O  . O ",
"    O. +      %$*%%O    O    .  ",
"           .%%%%%$%%%    OX     ",
"  . X     $%%%%%%%*%%%% X .  X@ ",
"   X     .%%-$%%%%%---% X    O  ",
"       O *-**%**%%$%%%%%      X ",
".       %%%%*%&%-$%%-%;%% O   . ",
"    O  .%%%-*%%*%%%%%%*%%     . ",
"      O %-%%,,%-%%%-%%%%% XO    ",
"  X     $%*,,,>%%*,,-%%%%  O .  ",
"  X X  %%%,,,:,,-:,,,%%%%%   +. ",
"    .  -%%,,,,:,-,<:,%%%%%X     ",
"   X  O%-%$:,:<%%-,,%&%-%%X     ",
"       *%%%%,,%*%%*%%-%%$%  X  .",
" +  .X %%%%*%%%%%%%%%%%$$% XX OX",
"X   X  %$$%%--%%%%%$$%%%$%   X  ",
" X.XO  %%%%%$=$%%$%%%%$%%%. +   ",
"    O. %%%%%%%*%%%*%%%%%%%   X X",
"  .  O -%%%,>%%,,%%->,%*%% X    ",
" X     -%%,%%:,%-,,,%%,%%%    XX",
"     X -%-%%%%*%%%%%*%$%%%      ",
"       %%%%%%%%$*%-%%%%%%%..    ",
"  X    %%* %%%%  %$%%% *%%.  O  ",
"  o X  %%O .%%.O *--%   %-X     ",
" X +   %O .O-%    %%X   %%O@ X  ",
"           .  .X     .  XO O O  ",
"    O  XO. X         X . . .    ",
"     X X .  X   @ . #. X  .     ",
"      X   X                     "
};
