/* XPM */
static char *b8f37294e20b4ffa933d3a818e83a080EoeIo29KkdduwQBH[] = {
/* columns rows colors chars-per-pixel */
"32 32 9 1 ",
"  c black",
". c #010100",
"X c #010001",
"o c #000101",
"O c #CA0000",
"+ c #CB0101",
"@ c #0052D8",
"# c #0053D8",
"$ c #FEFFFF",
/* pixels */
"                                ",
"                                ",
"                                ",
"                                ",
"              +++++     o  o    ",
"            +++++++++           ",
"          +++++++++++++         ",
"          O++++++++++++         ",
"         +++++++++++OO++        ",
"        ++++$$+++++$$++++       ",
"        +++$$$$+++$$$$+++       ",
"        +++$$$$+OO$$$$+++       ",
"        ++O$$##+OO$$##+++       ",
"       ++++$$##+OO$$##++++      ",
"       ++OOO$$+++++$$+++++      ",
"       ++OOO++++O+++++++++      ",
"       +O+O+OOOOOOOOOOOOOO      ",
"       +OOOOOOOOOOOOOOOOOO      ",
"       +OOOOOOOOOOO+OOOOOO      ",
"       +OO++OOOOO+OO+OOOOO      ",
"       +OOOOOOOOOOOOOOOO++      ",
"       +OOOOOOOOOOOOO+OO++      ",
"       OOO+O++++OOOOOOOO++      ",
"       OOOOO++++OOOOOOOO++      ",
"       +++++++++++++++++++      ",
"       +++ ++++  +++++ +++      ",
"       ++   +O   ++++   +O      ",
"       +    ++    ++    OO      ",
"                                ",
"                                ",
"                                ",
"                                "
};
