/* XPM */
static char *d038e615d8a74a5b9fd70fc709b2389c1ssH1PgVH7nW43oK[] = {
/* columns rows colors chars-per-pixel */
"32 32 8 1 ",
"  c None",
". c black",
"X c #010000",
"o c #000100",
"O c #010100",
"+ c #000001",
"@ c #010001",
"# c #000101",
/* pixels */
"                                ",
" ...........#.....@............ ",
" ..........##..........O#...... ",
" ..............@...........#@.. ",
" .......................#...... ",
" .............................@ ",
" ........O..............#...... ",
" ..............O.......O....... ",
" ........@.@............#....O# ",
" .........@..O................. ",
" ..........@..O..#........#.#.. ",
" O..@@.......O.O........#...... ",
" .....#..@..@.................. ",
" ..#............#.....O........ ",
" .....#..........O....#........ ",
" ..........OOO........@...@@... ",
" ...............O....#@........ ",
" ..O.#...........#...#......... ",
" ...................#........#. ",
" O...........O@....##...@...... ",
" ...O..................@...#... ",
" O.#.........@......@..##...... ",
" ......O....................... ",
" ....O......@..#......O......#. ",
" .....O......O...........@..... ",
" ..O.....#............@.#...... ",
" ....@#......#....O.@.......... ",
" ..#.....#.................@#.# ",
" ...........O.....#............ ",
" ....@.......O.....@...@......@ ",
" .....O..O........O........@@.. ",
"                                "
};
