/* XPM */
static char *_7095bfb4da24ee8c4d5fe7cc840a50cwALm8CoUirEGhV9u[] = {
/* columns rows colors chars-per-pixel */
"32 32 4 1 ",
"  c black",
". c #010100",
"X c #010001",
"o c #000101",
/* pixels */
"             .          .       ",
"                              . ",
"             .           .      ",
"            .                o  ",
"  o                             ",
"   o           .                ",
"                         . .    ",
"             .    .     . .     ",
"     o        .    X          . ",
"     o   o   .                 .",
"          oo .                  ",
"o      o     o                  ",
"       o  o                 X   ",
"o         o  o o  oo  X  X      ",
"o           o        X        X ",
"                     X      X X ",
"               .   o         o  ",
"      oo      X oo              ",
"         X X      o             ",
" o         X       o            ",
"   oo          .  o o o   .     ",
"   . oo                        .",
"    o       . .    o    .  . .  ",
"                      .         ",
"  .       .          o  .       ",
"            .            X      ",
".                 oo o         X",
"   . .   .   .         o        ",
"  .              o      o X     ",
"          .   o       oo   X X  ",
". .     .           o         X ",
".                            X  "
};
