/* XPM */
static char *result[] = {
/* columns rows colors chars-per-pixel */
"32 32 14 1 ",
"  c black",
". c #010000",
"X c #000100",
"o c #010100",
"O c #000001",
"+ c #010001",
"@ c #000101",
"# c #FCE638",
"$ c #FDE638",
"% c #FCE738",
"& c #FDE738",
"* c #FCE639",
"= c #FDE639",
"- c #FDE739",
/* pixels */
"OX O  OXX           + . O       ",
"   O         OX .          X    ",
"   O. X         X  O   .   OO  X",
"            .   O            X  ",
"  O  . O .X            O      O ",
" X X   O     XOO      X         ",
"    O     .    .    O .  .. O   ",
".        $&$     . O#$$    .    ",
"        &$$$ .O     $$$$        ",
"  @ O  $$$$$$  O   &$#$$=XO  O  ",
"      $$$$$$$.  X  &=$=$=$ . O o",
"      $&$=$== XO   $#$$$$$    . ",
"  X+ $=$$=$$$$ X  #$$$$$&$=   . ",
"   X.=$$&$$$$$    $$$$$$$$$ X   ",
" .   $$$&$$$=$    $$$$$$=$$   + ",
".XO  $$$$$$$=#$ X$$$$*$$$$$     ",
"X X O$$$$$%$&$$ X$$$$$$$$$$     ",
"     $$$#$$$$$$$$#$$$==$#$$   O ",
"     #$$$$$$$$$$$==$$$&$$$$X  X ",
"    O$$$$$&$$$=$&$&$$$$$$$$. .  ",
"    O $$$$$$=$$$$$$$$$$&$$     O",
"      $$$#$$=$$$=$$$$$$$$$+     ",
"   X.  $$$$$$$$$$$-$$$$$$     XX",
"        #=$$#$$$$$#==$&$    XX  ",
"      OX $$$=$$$$#$$$$$    OX .O",
"       X  $$$$$$$$#=$$      OX .",
"      O    O$#$$$==$ .    O     ",
"  .            O XO             ",
"            @.O.X.    .  X      ",
"  O X  O  X        X..          ",
" .   X O.  X      X    O        ",
"   ..                      X    "
};
