/* XPM */
static char *result[] = {
/* columns rows colors chars-per-pixel */
"32 32 14 1 ",
"  c black",
". c #010000",
"X c #000100",
"o c #010100",
"O c #000001",
"+ c #010001",
"@ c #000101",
"# c #FCE638",
"$ c #FDE638",
"% c #FCE738",
"& c #FDE738",
"* c #FCE639",
"= c #FDE639",
"- c #FDE739",
/* pixels */
"  X       o         O X O.      ",
"    O      .. +  OX   X .       ",
"   X     OO        .   X X      ",
"  O   O      X         XXO      ",
" XO    .  .       X.    O      X",
"      .  O  =$$$$$$$ +    O     ",
"      .  X$$$$$$$$$$$$      X   ",
"O        ==$&$=$$#$$$$$         ",
"  . O   $$$$$$$$$$$$&$$$      O ",
".    X.$$$=$$$$$$=&$$$$&$   .   ",
"       $$#$$$$$*$=$$$$$$$$.  .  ",
"+     O#$$=#$$$$$$$$$$$=$$   .  ",
"  O    O &&$$$$$$$$$$$$=$=$  X  ",
"            #$$$$$=&$$-#$#=O  X ",
"       .       $$#=$$$$$#$=X.   ",
" .XO      X    XX$$&$=$$$$$ X   ",
"     O.  O OX    $$$$$$$$$$O.   ",
" X   O  O  X   $$$$=$$$$$$$ O   ",
" O   X  . . $$$#$$$$$$$$$$# .   ",
"   .     $$=$$==&$$$==$#=$$ @   ",
"       $$$$=$$$$$$$$$$$$$$O   X ",
"    X .&$$$$$$$$%$$&$$$$$$   X  ",
"    .  $$$$==$$$$$$$$#$=$       ",
"X       &$$$$&&$$#$$$$$#      . ",
"X   OO   $$&$$$$$$$$$$$ XX   OO ",
"O X       $$=$$$$$$$$$  O O     ",
"    .       $=$$$$#$          X ",
"  .   O  O   .  O  OO .      X .",
"OOO  X      +X        X        .",
"    O    @  X  OX          . O  ",
"X    X        .X              . ",
"O      .       .X               "
};
