/* XPM */
static char *_6bba7305b0a4f84d1d8702f1d22ece9Oj35wQGlMuG0TZGp[] = {
/* columns rows colors chars-per-pixel */
"31 31 28 1 ",
"  c None",
". c black",
"X c #010000",
"o c #000100",
"O c #010100",
"+ c #000001",
"@ c #010001",
"# c #000101",
"$ c #010101",
"% c #FCE634",
"& c #FDE634",
"* c #FCE734",
"= c #FDE734",
"- c #FCE635",
"; c #FDE635",
": c #FCE735",
"> c #FDE735",
", c #FDE636",
"< c #FCE736",
"1 c #FDE736",
"2 c #FCE737",
"3 c #FDE737",
"4 c #FDE934",
"5 c #FCE835",
"6 c #FDE835",
"7 c #FCE935",
"8 c #FDE935",
"9 c #FCE836",
/* pixels */
"                               ",
" XXX##XX#XXXX#XXXXXXXXXXXXXXXX ",
" XXX#XXXXXXXXXXXXXXXXXX#XX#XXX ",
" XXXXX##XX#XXXXXXXXXXXXX#X#X#X ",
" XXXXXXXXXXXXXXXXXXXXXXX#XXX## ",
" XXXXX#XXXXX29:::::XXXXXXXXXXX ",
" XXXXXXXXX::::::::::9XXXXXXXXX ",
" XXXXXXXX2::::::::::92XX#X#XXX ",
" #XXXXXX9&:::::::::::::XXXXXXX ",
" X#XXXX9::::::::::::::::XXXXXX ",
" XXXXXX9:::::::&::::::::2XXXXX ",
" XXXXXX2::::&::&::::::::2XXXXX ",
" X#XXXXXX949::::;:::::::9:XXXX ",
" X#XXXXXXXXX:::&:3::::::9:XXXX ",
" XXXXXXXXXXXXXX::::::::::3XXXX ",
" XXXXXXXXXXXXXXX:::::::::9XXXX ",
" XXXXXXXXXXXXXX:::::::::::XXXX ",
" X#XXXX#XXXX:9::::::::::::XXXX ",
" X#XXXXXX:::::39::::::::9:XXXX ",
" XXXXXX9:::::::::::::::;2X#XXX ",
" XXXXXX9:::::::9::9:::::9XXXXX ",
" XXXXXX9::::::::::::::::#XXXXX ",
" XXXXXXX9::::99:&::::::@XX#XXX ",
" XXXXXXXX::9::::::::::XXXXXXXX ",
" XXXX#XX#X2:2:9::&::9XXXX#XXXX ",
" XXXXX#XXXXX92:::::XXXXX##X#XX ",
" XXXXX#XXXXXXXX#XXXXXXXXXXX#XX ",
" XXXXXXXXXXXXXXXXXXXXXXX#XXXXX ",
" XXXXXXXXXXXXX#XXXXXXXXXX#XX## ",
" XXXXXXXXXXXXXXXXXXXXX#XXXXXXX ",
"                               "
};
