/* XPM */
static char *result[] = {
/* columns rows colors chars-per-pixel */
"32 32 14 1 ",
"  c black",
". c #010000",
"X c #000100",
"o c #010100",
"O c #000001",
"+ c #010001",
"@ c #000101",
"# c #FCE638",
"$ c #FDE638",
"% c #FCE738",
"& c #FDE738",
"* c #FCE639",
"= c #FDE639",
"- c #FDE739",
/* pixels */
"    X                      ..   ",
"        O    X      X  .O X   . ",
"          ..X        X  O  X O  ",
"      X  .    .X.O.@            ",
"             OX O            .  ",
"     O    . $==$$$#$O    O      ",
". XO      $$=#$$$$$$$$  X       ",
"O. XO    $$$$$#$$$$=$$$ XO      ",
"  XX    $&$==#$$$$$#$$=#        ",
"XX     $$$$$$-$$$$$$$$$$$  .X   ",
"     +$$$$$$$$$=$$$=$$#$$$      ",
"O     $$&$$$$$$$$$$=$$$$$$ O    ",
"  . .$$$$$$$$&$&$=$$$&$$$$$O    ",
" X  X$$$$&$$$==$$$$$$$$$$$#     ",
" O   $$#$==$$$#$$$$$$$$#$$$     ",
"     $$$$$$$$$$X $$&$%$$$$$O X X",
"     $$$$$*$$$$X $#=$$$$$$$  OX.",
" +   $$=$$$$$$    $=$$$&$$$   . ",
"   X $$$$$$$$$    $$$$$&$$=.X   ",
" .   =$&$$$$$#  X $$$$=$$=$ +X  ",
" .    $$$$$#$   OX ==$=$&$      ",
"o O . $=$=$=&  X  .$$$$$$$      ",
"  O  OX=$$#$&   O  $$$$$$  O @  ",
"        $$$$     O. $$$&        ",
"    .    $$#O .     $&$        .",
"   O ..  . O    .    .     O    ",
"         X      OOX     O   X X ",
" O      O            X. O .  O  ",
"  X            O   .            ",
"X  OO   .   O  X         X .O   ",
"    X          . XO         O   ",
"       O . +           XXO  O XO"
};
