/* XPM */
static char *b35293d365c14babc25af30114561dc08QVVSnpgkpgWJsoD[] = {
/* columns rows colors chars-per-pixel */
"32 32 7 1 ",
"  c black",
". c #010100",
"X c #010001",
"o c #000101",
"O c #FCE638",
"+ c #FDE638",
"@ c #FDE739",
/* pixels */
"                                ",
"                                ",
"                                ",
"                                ",
"                         X      ",
"            @@@+@@@+            ",
"          ++@@++@++@@+          ",
"         +++++++@@++@+@   X     ",
"        @++++++++++++@@@        ",
"       @@@+++++++++@@@@@@       ",
"      ++++++++++++++++@@@       ",
"      ++++++++++++++@+@@@       ",
"     @+@++@@++++@@++@@@         ",
"     @@@+++++++@++++      X     ",
"     @@@++++@++@@               ",
"     @@@+++++++     X           ",
"     +++++@+++@                 ",
"     @+++++++@@+@               ",
"     @+++@+++@++++@@            ",
"     @@+@++++++++++++@@         ",
"      @+@++++++++++++@++@       ",
"      @+++++++@+@+++++++@       ",
"       @++++++@++++++@++@       ",
"        ++++++++++++++++        ",
"         @@@@++++@@@@@@         ",
"          @@+++@+++@@@          ",
"          X +@@@++@@  X  X      ",
"                                ",
"                         X      ",
"                     XX         ",
"                           X    ",
"                                "
};
