/* XPM */
static char *f9e29fa2e0984540996119c854255237syRXuqYU0cXHdz1F[] = {
/* columns rows colors chars-per-pixel */
"31 31 28 1 ",
"  c None",
". c black",
"X c #010000",
"o c #000100",
"O c #010100",
"+ c #000001",
"@ c #010001",
"# c #000101",
"$ c #010101",
"% c #FCE634",
"& c #FDE634",
"* c #FCE734",
"= c #FDE734",
"- c #FCE635",
"; c #FDE635",
": c #FCE735",
"> c #FDE735",
", c #FDE636",
"< c #FCE736",
"1 c #FDE736",
"2 c #FCE737",
"3 c #FDE737",
"4 c #FDE934",
"5 c #FCE835",
"6 c #FDE835",
"7 c #FCE935",
"8 c #FDE935",
"9 c #FCE836",
/* pixels */
"                               ",
" .......$..$........$....$.... ",
" ....$...$..$....$............ ",
" .....$....$..$...$..$.....$.. ",
" ............................. ",
" .....$$....3222=22.....$..... ",
" ....$....2=2=2===228......$.. ",
" ........2=====22==822.....$.. ",
" .......2===22==2=====2.$..... ",
" .$....=2=2===2===22=2==...... ",
" $....=222=====4=2=2==22.$.... ",
" $....=====22=2==2=22===$.$$.. ",
" ....222==22=2=4322223.$...... ",
" ..$.===2======2882........... ",
" .$$.2=2===22==2..........$..$ ",
" ....2==&2=2==2...........$... ",
" ..$.222==2=22=2.....$....$... ",
" .$..2===2=======22.........$. ",
" ....22=2=2=22=222==44........ ",
" .....=22===========22=2....$. ",
" .....22=2====2==22===2=.$.... ",
" ......=42=2==2=====2=2=$...$. ",
" .$.....2=2=2=2=2==22==....... ",
" ........===2===2===22........ ",
" $.....OO.882222==2=8...$$..$. ",
" ...........88====2........... ",
" .....OO.................$.... ",
" ...O.O......$...$......$..... ",
" ..$...$......$....$......$.$. ",
" ..............$.....$...$$... ",
"                               "
};
