/* XPM */
static char *a17c6555249849d1a7083f78af725e3dKxuTZ8jkiqXqiZx3[] = {
/* columns rows colors chars-per-pixel */
"31 31 28 1 ",
"  c None",
". c black",
"X c #010000",
"o c #000100",
"O c #010100",
"+ c #000001",
"@ c #010001",
"# c #000101",
"$ c #010101",
"% c #FCE634",
"& c #FDE634",
"* c #FCE734",
"= c #FDE734",
"- c #FCE635",
"; c #FDE635",
": c #FCE735",
"> c #FDE735",
", c #FDE636",
"< c #FCE736",
"1 c #FDE736",
"2 c #FCE737",
"3 c #FDE737",
"4 c #FDE934",
"5 c #FCE835",
"6 c #FDE835",
"7 c #FCE935",
"8 c #FDE935",
"9 c #FCE836",
/* pixels */
"                               ",
" ...$...................$$..$. ",
" ...$.....$..........$.....$$. ",
" ......................$..$... ",
" ..$...$...................... ",
" ...........8338%%1........... ",
" ...$..$..1=11811%=18....$.... ",
" ...$.$..1=1=111=11118........ ",
" .......18=11==111%%111....... ",
" ......1111=111=%=%1=1=%...... ",
" .....1%=1=11==1=1111%113..... ",
" .....=11=1==1==1=1==1%48..$.. ",
" ....11=1=1==1%11=11=1=111.... ",
" ....1=1=8=1%1111===1=1=11.... ",
" .$..11%11%1=1%11==1=%=111.... ",
" .$..==1===%1=1.=1817%1118.... ",
" ....1111%1=1=...8111=%111.... ",
" ..$.8=1%==1=1...111=14113.... ",
" ....11==1==11...111=1%138.... ",
" .$...1=1=11=.....%111143..... ",
" .....8111=18.....=1=1=13..... ",
" ......1==1=8..$..=11=1=...... ",
" .......1111.......111=.$..... ",
" ........118.......181........ ",
" .$$.$...$............$..$$... ",
" $..$.$...$.........$...$..... ",
" .............$$.............. ",
" .$........................... ",
" .....$..$.$.$...........$.... ",
" $.........................$.. ",
"                               "
};
