/* XPM */
static char *_c0d4989430d4bebcce0e24cb48f0c1cydNRZ195dhiDimhZ[] = {
/* columns rows colors chars-per-pixel */
"31 31 28 1 ",
"  c None",
". c black",
"X c #010000",
"o c #000100",
"O c #010100",
"+ c #000001",
"@ c #010001",
"# c #000101",
"$ c #010101",
"% c #FCE634",
"& c #FDE634",
"* c #FCE734",
"= c #FDE734",
"- c #FCE635",
"; c #FDE635",
": c #FCE735",
"> c #FDE735",
", c #FDE636",
"< c #FCE736",
"1 c #FDE736",
"2 c #FCE737",
"3 c #FDE737",
"4 c #FDE934",
"5 c #FCE835",
"6 c #FDE835",
"7 c #FCE935",
"8 c #FDE935",
"9 c #FCE836",
/* pixels */
"                               ",
" .............$.......$...$... ",
" ................X.........$$. ",
" ..........$.................. ",
" .............$$............$$ ",
" .........................$..$ ",
" .......$.................$$.. ",
" ........393$......999........ ",
" .......99,=..X....9=9=..$.$.. ",
" ......=,,=99...X.99,==9..$..X ",
" X....=999==9.....=,=,,,9..... ",
" .....,=,,,,9.....=,9===9...X. ",
" ..X.9,,=,9=,,...,9==,9=99.... ",
" .X..,,9=,=,,9...9,=9==,,=.... ",
" ....99=9=9=9,...,=,=,=99=.... ",
" .X..,=,=9==999.==9====,=,...X ",
" ...$999=,==,==9=,=,,9=,9,..X. ",
" .$..3=9=9,=9=,=9,9==99==9.... ",
" ....9,,,=9===,,==9,,==,99.... ",
" ..$..===9=,,99==,====9=9..... ",
" .....9,9=,=,=9==,,=9=,=9..... ",
" ......9=,=9=,=,99=9=,=9...... ",
" .......,9,=,=,===,,,9,.$..... ",
" ........===9,=,=,=9=9..$.$$$. ",
" ....$...$9,99,=9=,99......... ",
" ....$$.....93,9,9,........X.. ",
" ..............X...........$$. ",
" ...$$.X....$$X............... ",
" .$...........X..X....X...$$.. ",
" .$.....................X.$... ",
"                               "
};
