/* XPM */
static char *result[] = {
/* columns rows colors chars-per-pixel */
"250 70 15 1 ",
"  c black",
". c #010000",
"X c #000100",
"o c #000001",
"O c #5A0000",
"+ c #5B0000",
"@ c #5A0100",
"# c #5B0100",
"$ c #5A0001",
"% c #5B0001",
"& c #5A0101",
"* c #FFFFFE",
"= c #FFFEFF",
"- c #FEFFFF",
"; c white",
/* pixels */
";;;;;;;;;;;;;;;;;;;;;;;;;;;;;;;;;;;;;;;;;;;;;;;;;;;;;;;;;;;;;;;;;;;;;;;;;;;;;;;;;;;;;;;;;;;;;;;;;;;;;;;;;;;;;;;;;;;;;;;;;;;;;;;;;;;;;;;;;;;;;;;;;;;;;;;;;;;;;;;;;;;;;;;;;;;;;;;;;;;;;;;;;;;;;;;;;;;;;;;;;;;;;;;;;;;;;;;;;;;;;;;;;;;;;;;;;;;;;;;;;;;;;;;;;;",
";OOOOOOOOOOOOOOOOOOOOOOOOOOOOOOOOOOOOOOOOOO$OOOOOOOO$OOOOOOOOOOOOOOOOOOOOOOOO$OOOOOOOOOOOOOOOOOOOOOOOOOOOOOOOOOOOOOOOOOOOOOO+OOOOOOOOOOOOOOOOOOOOOOOOOOOOOOOOOOOOOOOOOOOOOOOOOOOOO@@OOOOOOOOOOOOO@+OOOOOOOOOOOOOOOOOOOOOOOOOOOOOOOOOOOOOOOOOOOOOOOOOOOOOO;",
";OOOOOOO+OOOOOOOOOOO$OOOOOOOOOO$OOOOOOOOOOOOOOOOOOOOOOOOOOOOOOOOOOOOOOOOOOOOOOOOOOOOOOOOOOOOOOOOOOOOOOOOOOOOOOOOOOOOOOOOOOOOOOOOOOOOOOOOOOOOOOOOOOOOOOOOO$OOOOOOOOOOOOOOOOOOOOOO+OOOOOOOOOOOOOOOOOOOOOOOOOOOOOOOOOOOOOOOO$OOOOOOOOOOOOOOO@OOOOOOOOOOOOOOO;",
";OOOOOOOOOOOOOOOOOOOOOOOOOOOOOOOOOOOOOOOOOOOOOOOOOOOOOOOOOOOOOOOOOOOOOOOOO$OOOOOOOOOO+OOOOOOOOOOOOOOOOOOOOOOOOOOOOOOOOOOOOOOOOOOOOOOOOOOOOOOOOOOOOOOOOOOOOOOOOOOOO+OOO@OOOOOOOOOOOOOOOOOOOOOOOOOOOOOOOOOOOOOOOOOOOOOOOOOOOOOOOOOOOOOOOOOOOOOOOOOOOOOOOOOO;",
";OOOOOOOOOOO+OOO+OOOOOOOOOOOOOOOOO@OOOOOOOOOOOOOOOOOOOOOOOOOOOO@OOOOOOOOOOOOOOOOOOOOOOO$OOO+OOOOOOOOOOOOOOOOOOOOOOOOOOOOOOOOOOOOOOOOOOOOOOOOOOOOOOOOOOOOOOOOOOOOOOOOOOOOOOOOOOOOO$OOOOOOOOOOOOOOOOOOOOOOOOOOOOOOOOOOOOOOOOOOOOOOOOOOOOOOOOOOOOOOOO+OOOOOO;",
";OOOOOOOOOOOOOOOOOOOOOOOOOOOOOOOOOOO$OOOOOOOOOOOOOOOOOOOOOOOO$+OOOOOOOOOOOOOOOOOOOOOOOOOOOOOOOOOOOOOOO@OOOOOOOOOOOOOOOOOOOOOOOOOOOOOOOOOOOOOOOOOOO$OOOOOOOOOOOO@OOOOOOOOOOOOOOOOOOOOOOOOOOOOOOOOOOOOOOOOOOOOOOOOOOOOOOOOOOOOOOOOOOOOOOOOOOOOOOOOOOOOOOOOO;",
";OOOOOOOOOOOOOOOOOOOOOOOOOOOOOOOOOOOOOOOOO@OOOOOOOOOOOOOOOOOOOOOOOOOOOOOOOOOOOOOOOOOOOOOOOOOOOOOOOOOOOO$OOOOOOOOOOOOOOOOOOOOOOOOOO+OOOOOOOOOOOOOOOOOOOOOOOOOOOOOOOOOOOOOO+OOOOOO@OOOOOOOOOOOOO$OOOOOOOOOOO$OOOOOOOOOOOOOOOOO$OOOOOOOOOOOOOOOOOOOOOOOOOOO+;",
";OOOOOOOOOOOOOOOOOOOOOOOOOOOOOOOOOOOOOOOOOOOOOOOOOOOOOOOOOOOOOOOOO+OOOOOOOOOOOOOOOOOOOOOOOOOOOOOOOOOOOOOOOOOOOOOOOOOOOOOOO+OOOOOOOOOOOOOOOOOOOOO@OOOOOOO+OOOOOOOOOOOOOOOOOOOOOOOOOOOOOOOO@OOOOOOOOOOOOOOOOOOOOOOOOOOOOOOOOOOOOOOOOOOOOOOOOOOOOOOOOOOOOO+O;",
";OOOOOOOOOOOOOOOOOOOOOOOOOOOOOOOO@OOOOOOOO$OOOOOOOOOOO$OOOOOOOOOOOOOOOOOOOOOOOOOOOOOOOOOOOOOOOOOOOOOOOOOOOOOOOOOOOOOOOOOOOOOOOOOOOOOOOOO@OOOOOOOOOOOOOOOOOOOOOOOOOOOOOOOOOOOOO@OOOOOOOOOOOOOOO$OOOOOOOOOOOOOOOOOOOOOOOOOOOOOOOOOOOOOOOOOOOOOOOOOOOOOOOOOO;",
";OOOOOOOOOOOOOOOOOOOOOOOOOOOOOOOO+OOOOOOOOOOOOOOOOOOOOOOOOOOOOOOOOOOOOOOOOOOOOOOOOOOOOO   OOOO+OOOOOOOOOOOOOOOOOOOOOOOOOOOOOOOOOOOOOOOOOO@@OOOOOOOOOOOOOOOOOOOOOOOOOOOOOOOOOOOOOOOOOOOOOOOOOOOOOOOOOOOOOOOOOOOOOOOOOOOOOOOO+OO@OO+OOOOOOOOOOOOOOOOOOOOOOO;",
";OOOOOOOOOOOOOO+OOOOOOO$OOOOOOOOOOOOOOOOOOOOOOOOOOOOOOOOOOOOOOOOOOOOOOOOOOOOOOOOOOOOOOO  XOOOOOOOOOOOOO++OOOOOOOOOOOOOOOOO$OOOO+OOOOOOOOOOOOOOOOOOOOOOOOOOOOOOOOOOOOOOOOOOOOOOOOOOOOOOOO@+OOOOOOOOOOOOOOOOOO+OOOOOOOOOOOOOOOOOOOOOOOOOOO@OOOOOOOOOOOOOOOO;",
";OOOOOO+OOOOOOOOOOOOOOOOOOOOOOOOOOOOOOOOOOOOOOOOOOOOOOOOOOOOOOOOOOOO$OOOOOOOOOOOOOOOOOO   OOOOOOOOOOOOOOOO$O@OOOOOOOOOOOOOOOOOOOOOOOOOOOOOOOOOOOOOOOOOOOOOOOOOOOOOOOOOOOOOOOOOOOOOOOOOOOOOOOOOOOOOOOOOOOOOOOOOOOOOO+OOOOOOOOOOOOOOOOOOOOOOOOOOOOOOOOOOOOO;",
";OOOOOOOOOOOOOOOOOO+OOOOOOOOOOOOOOOOOOOOOOOOOOO@OOO@O+O+OOOOOOOOOOOOOO   X      OOOOOOO   X    OOOO+OOOOOOOOOOOOOOOOOOOOOOOOOOOOOOOOOOOO$+OOOOOOOOOOOOOOOOOOOOOOOOOO&OOOOOOOOOOOOOOOOOOOOOOOOOOOOOO$OOOOOOOOOO$O$OOOOOOOOOOOOOOOOOOOOOOOOOOOOOOOOOOOOOOOO;",
";OOOOOOOOOOOOOOOOOOOOOOOOOOOOO$OOOOOOOOOOOO@OOOOOOOO$OOOOOOOOOO$+OOOOO  .       OOOOOOO        OOOOOOOOOOOOOOOOOOOOOOOOOOOOOO$OOOOOOOOOOOOOOOOOOOOOOOOOO@O$OOOO$OOOOOOOOOOOOOOOOOOOOOOOOOOOOOOOOOOOOOOOOO+OOOOOOOOO$OOOOOOOOOOOOOOOOOOOOOOOOOOOOOOOOOOOOO;",
";O+OOOOOOO@OOOOOOOOOOOOOO                         .                  oOOOOOOOOOOOOOOOOO   OOOOO       $OOOOOOOOOOOOOO+OOOOOOOOOO++OOOOOOOOOOOOOOOO@OOOOOOOOOOOOOOOOOOOOOOOOOOOOOOOOOOOOOOOOOOOOOOOOOOOOOOOOOOOOOOOOOOOOOOO+OOOOOOOOOOOOOOOOOOOOOOOOOOOOO@;",
";OOOOOOOOOOOOOOOOOOOOOOOO             o                               OOOOOOOOOOOOOOOOO   OOOOOX      OOOOOOOOOOOOOOOOOOOOOOOOOOOOOOOOOOOOOOOOOOOOOOOOO$OOOOOOOOOO$OOOOOOOOOOOOOOOOOOOOOOOOOOOOOOOOOOOOOOOOOOOOOOOOOOOOOOO+OOOOOOOOOOOOOOOOOOOOOOOOOOOOOO;",
";OOOOOOOOOOOOOOOOOOOOOOOOOOOOO+OOOOOOOOOOOO  OOOOOOOOOOOOOOOOOOOOOOOOOOOOOOOOOOOOOOOOOO   OOOOOOOOOOOOOOOOOOOOOOOOOOOOOOOOOOOOO             OOOOOOOOOOOOO@OOOOOOOOOOOOO+OOOOOOOOOOOOOOOOOOOOOOOOO             OOOOOO$OOOOOOOOOOOOOOO@OOOOOOO$OOOOOOOOOO+O;",
";O+OOOOOOOOOOOOOOOOOOOOOOOOOOOOOOOOOOOOOOOO  OOOOOOOOOOOOOOOOOOOOOOOOOOOOO@OOOOOOOOOOOO   OOOOOOOOOOOOOOOOOOOOOOOOOOOOOOOOOOO$O             OOOOOOOOOOOOOOOOO$OOOOO+OOOOO$OOOOOOOOOOOOOOOOOOOOOOO             OOOOO+OOOOOOOOOOOO@OOO$OOOOOOOOOO@OOOOOOOOO;",
";OOOOO@OOOOOOOOOOOOOOOOOOOOOOOOOOOOOOOOOOOO  OOO$OOOOOOOOOOOOOOOOOOOOOOOOOOOOOOOOOOOOOO   OOOOOOOOOOOOOOOOOOOOOOOOOO$OOOOOOOOOO .           OOOOOOOOOOOOOOOOOOOOOOOOOOOOOOOOOOOOOOOOOOOOOOOOOOOOO             OOO+OOOOOOOOOOOOOOOOOOOOOOOOOOOOOOOOOOOOOOO;",
";OOOOOOOOOOOOOOOOOOOOOOOO$OOOOOOOOOOOOOOOOO  OOOOOOOO@@OOOOOO$OOOOOO+OOOOOOOOOOOOOOOOOO   OOOOOOOOOOOOOOOOOOOOOOOOOOOOOOOOOOO  OOOOOOOOOOOOO  OOOOOOOOOOOOOOOOOOOOOOOO@OOOOOO  OOOOO            oOOOOOOOO@OOOOOOOOOOOOOOOOOOOOO+OOOOOOOOOOOOOOOOOOOOOOOOO;",
";OO+OOOOOOOOOOOOOOOOOOOOOO$O$$OOOOOOOOOOOOO  OO$OOOOOOOOOOOOOOOOOOOOOOOOOOOOOOOOOOOOOOO   OOOOOOOOOOO@OOOOOOOOOOOOOOOOOOOOOOO  OOOOOOOOOOOO@  OOOOOOOOOOOOOOOOOOOOOOOOOOOOOOO  OOOOO             OOOOOOOOOOOOOOOOO+OOOOOOOOOOOOOOOOOOOOOOOOO$OOOOOOOOOOOO;",
";OOOOOOOOOOOOOOOOOOOOOOOOOOOOOOOOOOOOOO+OOO  OO$OOOOOOOOOOOOOOOOOOOOOOOOOOOO+OOOOOOOOOO   OO OOOOOOOO+OOOOOOOOOOOOOOOO+OOOOOO  OOOOOOOOOOOOOOOOOOOOOOOOOOOOOOOOOOOOOOOO           o OO@OOOOOOOOOOOOOOOOOOOOOO+OOOOOOOOO$OOOOOOOOOOOOOOOOOO$OOOOOOOOOOOOOO;",
";OOOO@OOOOOOOOOOOOOOOOOOOOOOOOOO+OOOOOOOOOO  OOOOOOOOOOOOOOOOOOOOOOOOOOOOOOOOOOOOOOOO+O   OO O+OOOOOOOOOOO+OOOOOOOOOOOOOOOOOO  OOOOOOOOOOOOOOOOOOOOOOOOOOOOOOOO+OOOOOOO             OOOOOOOOOOOOOOOOOOOOOOOOOOOOOOOO@OOOOOOOOOOOOOOOOOOOOOOOOOOOOOOOOOOOO;",
";OOOOOOOOOOOOOOOOOOOOOOOOOOOOOOOOOOOOOOOOOO  OOOOOOOOOOOOOOOOOOOOOOOOOOOOOOOOOOOOOOOOOO     OOOOOOOOOOOOOOOOOOOO@OOOOOOOOOOOO  O$OOOOOOOOOOOO+OOOOOOOOOOOOOOOO         OOOOOO  OOOOOOOOOOOOOOOOOOOOOOOOOOOOOOOOOOOOOOOOOOOOOO+OOOOOOOOOOO$O@OOOOOOOOO@OOO;",
";OOOOOOOOOOOOOOOOOOOOOOOOOOOOOOOOOOOOO+OOOO  OOOOOOOOOOOOOOOOOOOOOOOOOOOOOOOOOOOOOOOO+O     OO$OOOOOOOOOOOOOO+O@OOOOOOOOOOOOO  OOOOO@OOOOOOOOOOOOOOOOOOOOOOOOO     .   OOO++O  +OOOOOOOOOOOOOOOOO+OOO@+OOOOOO+O@OOOOOO@OOOOOOOO#OOOOOOOOOOOOOO@O$OOOOOOOO;",
";OOOOOOOOOOOOOOOOOOOOOOOOOOOOOOOOOOOOOOOOOO  OOOOOOOOOOOOOOOOOOOOOOOOOOOOOOOO$$$OOOOOOO     OOOOOOOOOOOOO$OOOOOOOOOO@OOOOOO$@  OOOOOOOOOO+OOOOOOOOOOOOOOOOOOOO  .      $OOOOO  OOOOOOOOOOOOOOOOOOOOOOOOOOOOOOOOOOOOOOOOOOOOOOOOOO+OOOOOOOO@OOOOOOOOOOOOOO;",
";OOOOOOO$OOOOOOOOOOOOOOOO$OOOOOOOOO+OOOOOOOOO   OOOOOOOOOOOOO$OOOOOOOOOOOOOOOOOOOOOOOOO     OOOOOOOOOOOOOOOOOOOOOOOOOOOOOOOOO  OOOOO$OOOOOOOOOOO+OOOOOOOOOO   OOOOOOOOOOOOOO+  OOOOOOOOO+OOOOOOOOOOOOOOOOOOOOOOOOOOOOOOOOOOOOOOOOOOOOOOOOOOOOOOOOOOOO$OOO;",
";OOOOOOOOOOOOOO+OOOOOOOOOOOOOOOOOOOOOOOOOOOOO   OOOOOOOOOOO$OOOOOOOOOOOOOOOOOOOOOOOOOOO     OOOOOOOOOOOOOOOOOOOOOOOOOOOOOOOOO  OOOOOOOO+OOOOOOOOOOOOOOOOOOOX  OOOO+OOOOOOOOOO  OOOOOOOOOOOOOO+OOOOOOOOOOOOOOOO$OOOOOOOOOOOOOOOOOOOOOOOOOOOO@OOOOOOO+OOOOO;",
";OO+OOOOOOOOOOOOO$OOOOOOOO@OO+OOOOOOOOOOOOOOO   OOOOOOOOOOO$OOOOOOOOOOOOOOOOOOO$OOOOOOO     O               OOOOOOOOOOOOOOOOOOO   $OOOOOOOOOOOOOOOOOOOOO   OOOOOOOOOOOOOOOOOO  O@OOOOOOOOOOOOOOOOOOOOOOO+OOOOO$OOOOOOOOOOOOO@OOOOOOO$OOOO%OOOOOOOOOOOOOOO;",
";OOOOOOOO@OOOOOOOOO@OOOO@OOOOOOOOOOOOOOOOOOOO X OOOOOOOOOOOO$OOOOOOOOOOOOOOOOO++OOOO@OO     O               OOOOOOOOOOOOOOOOOOO   OOOOOOOO+OOOOOOOOOOOOO   OOOOOOOOOOOOOOOOOO  @OOOOOOOOOO+OOOO+OOOOOOOO$O+OOOOOOOOOOOOOOOOOOOOOOOOOOOOOO$OOOOOOOOOOOOOOO;",
";OOOOOOOOOOOOOOOOOOOOOOOOOOOOOOOOOOOOOOOOOOOO   OOOOOOOOOOOOOOOOOOOOOOOOOOOOOOOOOOOOOOO     OOOOOOOOOOOOOOOOOOOOOOOOOOOOOOOOOOOOOO   OOOOOOOOOOOOOOOOO  O$OOOOOOOOOOO@OOOOOOO  OOOOOOOOOOOOO+OOOOOOOOOOOOOOOOOO+OOOOOO$OOOOOOOOOOOOOOOOOOOO+OOOOO@OOOOOOO;",
";OOOOOOOO@OOOOOOOOOOOOO@OOOOOOOOOOOOOOOOOOOOO   OOOOOOOOOOO@O$OOOOOOOOOOOOO@OOOOOOOOOOO     OO$OOOOOOOOOOOOOOOOOOOOOOOOOOOOOOOOOOO   OOOOOOOOOOO$OOOOO  OOOOOO@OOOOOOOOOOOOOO  OOOOOOOOOOOOOOOOOOOOOOOOOOOOOOOOOOOOOOOOOOOOOOOOOOOOOOOOOOOOOOOOOOOOOOOOOO;",
";OOOOOOOOOOO+O$OOOOOOOOOOOOOOOOOOOOOOOOOOOOOO   OOOOOOOOOOOOOOOOOO#OOOOOOOOOOOOOOOOOOOO     OOOOOOOO@OOOOOOOOOOOOOOOOOO$OOOOOOOOOO   OOOOOOOOOOOOO@OOO  OOO@OOO+O+OOOOOOOOOOO  OOOO@OO+OOOO+OOOOOOOOOOOOOOOOOOOOOOOOO+OOOOOOOOOOOOOOOOOOOOOOOOOOOOOOOOOOO;",
";OOOOOOOOOOOOOOOOOOOOOOOOOOOO$OOOOOOOOOOOOOOO   OOOOOOOOO@+OO$OOO@OOOOOOOOOOOOOOOOOOOOOOOO  OO@OOOOOOOOOOOOOOOOOOOOOOOOOOOOOOOOOOOO  OOOOOOOOOOOOOOOOOOOOOOOOOOOOOOOOOOOOOOOOOO  OOOOOOOOOOOOOOOOOOOOOOOOOOOOOOOOOOOOOOOOOOOOO$OOOOOOOOOOOOOOOOOOOOOOOOOO;",
";OOOOOOOOOOOOOOOOOOOOOOO+OOOOOOO+OOOOOOOOOOOO   OOOOOOOOOOOOOOOOOOOOOOOOOOOOOOOOOOO@OOOOOO  OOOOOOOOOOOOOOOOOOOOOOOOOOOOOOOOOOOOOOO  OOOOO@OOOOOOOOOO$OOOOOOOOOOOOOOOOOOOOOOOOO  OO$OOOOOOOOOOOO$OOOOOOOOOOOOOOOOOOOOOOOOOOOOOOOOOOOOO@OOOOOOOOOOOOOOOOOO;",
";@OOOOOOOOOOOOOOOOOOOOOOOOOOOOOOO+OOOOOOOOOOO   OOOOOOOOOOOOOOOOOOOOOOOOOOOOOOOOOOOOOOO     OOOOOOOOOOOOOOOOOOOOOOOOOOOO++OOOOO@OOO  OOOOOOOOOOOOOO@OOOOOOOOOOOOOOOOOOOOOOOOOOO  OOOOOOOOOOOOOOOOOOOOOOOOOOOOOOOOO$OOOOOOOOOOOOOOOOOOOOOOOOOOOOOOOOOOOOOO;",
";OOOOOOOOOOOOOOOOOOOOOOOOOOOOOOOOOOOOOOOOOOOO  XOOOO$OOOOOOOOOOOOOOOOOOOOOOOOOOOO+OOOOO     OOOOOOOOOOOOOOOOOOOOOOOOOOOOOOOOOOOOOOO  OOOOOOOOOOOOOOOOOOOOOOOO@OOOOOOOOOOOOOOOOO  OOOOOOOOOOOOO+OOOOOOOOOOOOOOOOOOOOOOOOOOOOOOOOOOOOOOOOO$OOOOOOOOOOOOOOOO;",
";OOOOO+OOOOOOOOOOOOOOOOOOOOOOOOOOOOOOOOOOOOOOOOO  OOOOOOOOOOOOOOOOOOOOOOOOOOOOOOOOOOOOO                               X X .  OOOOOO. OOOOOOOOOOOOOOOOOOOOOOOOOOOOOOOOOOOOOOOOOO  OOOOOOOOOOOOOOOOOOOOOOOOOOOOOOOOOOOOOOOOOOOOOOOOOOOOOOOOOOOOOOOOOOOOOOOO;",
";OOOOOOO+OOOOOOOOOOOOOOOOOOOOO$OOOOOOOOOOOOOOOOOo O@OOOOOOOOOOOOOOOOOOOOOOOOOOO$OOOOOOO                                   X  OO$OOO  OOOOOOOOOOOOOOOOOOOOOOOOOOOOOOOOOOOOOOOOOO  OOOOOOOOOOOOOOOOOOOOOOOOOOOOOOOOOOOOOOOOOOOOOOOOOOOOOOOOOOOOOOOOOOOOOOOO;",
";OOOOOOOOOOOOOOOOOOOOOOO+O$OOOOOOOOOOO$OO@OOOOOO  OOOOOOOOOOOOOO@OOO+OOOOOOOOOOOOOOOOOO  .           o         o             OOOOOO  OOOOOO+OOOOOOOOOO$O$OOOOOOOOOOOOOOOOOOOOOO  OOOOOOOOOOOOOOOOOOOOOOOOOOOOOOOOOOOOOOOOOOOOOOOOOOOOOOOOOOOOOOOOOOOOOOOO;",
";OOOOOOOOOOOOOOOOOOOOOOOOOOOOOOOOOOOO@OOOOOOOOOO  OOOOOOOOOOOOO+OOOOOOOOOOOOOOOOOOOOOOO     OO@OOOOOO@OOOOOOOOOOOOOOOOOOOOOOOOOOOOO    OOOOOOOOOOOOOOOOOO$$OOOOOOOOOOOOOOOOOOOO  OOOOOOOOOOOOOOOOOOOOOOOOOOOOOOOOOOOOOOOOOOOOOOOOOOOOOOOOOOOOOOOOOOOOOOOO;",
";OOOOOOOOOOOOOOOOOOOOOOOO+@OO+OOOOOOOOOO+OOOOOOO XOOOO@OOOOOOOOOOOOOOOOOOOOOOOOOOOOOOOO     OOOOOOOOOOOOOOOOOOOOOOOOOOOOOOOOOOOOOOO    OOOOOOOOOOOOOOOOOOOOOOOOOOOOOOOOOOOOOOOO  OOOOOOOOO+OOOOOOOOOOOOOOOOOOOOOOOOOOOOOOOOOOOO$OOOOOOOOOOOOOOOOOOOOOOOOO;",
";OOOOOOOOOOOOOOOOOOOOOOOOOOOOOOOOOOOOOOOOOOOOOOO  OOOOOOOOOOOOOOOOOOOOOOOOOOOOOOOOOO+OO     OOOOOOOOOOOOOOOOOOOOOOOOOOOOOOOOOOOOOO OOOOOOOOOOOOOOOOOO+OOOOOOOOOOOOOOOOOOOOOOOOO  OOOOOOOOOOOO@OOOOOOOOOO$OOOOOOOOOOOOOOOOOOOOOOOOOOOOOOOOOOOO++OOOOOOOOOO;",
";OOOOOOOOOOOOOOOOOOOOOOO$OOOOOOOOOOOOOOOOOOOOOOO  OOOOOOOOOOOOOOOOOO@OOOOOOOOOOOOOOOOOO     OOOOOOOOOOOOOOOOOOOOOOOOOO$OOOOOOOOOOO OOOOOOOOO++OOOOOOOOOOOO+OOOOOOOOOOOOOOOOOOOO  OOOOOOOOOOOOOOOOOOOOOOOOOOOOO+OOOOOOOOOOOOOOOOOOOOOOO@OOOOOO$+OOOOOOOOOO;",
";OOOOOOOOOOOOOOOOOOOOOOOOOOOOOOOO$OOOOOOOOOOOOOOOOOOOOOOOOOOOOOO+OOOOOOOOOOOOOOOOOOOOO@OOOOOOOOOOOOOOOOO+OOOOOOOOOOOOOOOOOOOOOOOOOOOOOOOOOOOOOO+O$OOOOOOOOOOOO@@OOOOOOOOOOOOOOO  @OOOOOOOOOOOOOOOOOOOOOOOOOOOOOOOOOOOOOOOOOOOO$OOOOOOOOOOOOOOOOOOOOOOOOOO;",
";OOOOOOOOOOOOO$OOOOOOOOOOOOOOOOOOOO+OOOOOOOOOOOOOO+OOOOOOOOOOOOOOOOOO+OOOOOOOOOOOOOOOOOOOOOOOOOOOOOOOOOOOOOOOOOOOOOOOOOOOOOOOOOOOOOOOOOOOOOOOOOO+OOOOOOOOOOOOOOOOOOOOOOOOOOOOOO. OOOOOOOOOOOOOOOOOOOOOOOOOOOOOOOO@OOOOOOOOOOOOOOOOOOOOOOOOOOOOOOOOOOOOOOO;",
";$OOOOOOOOOOOOOOOOOOOOOOOOOOOOOOOOOOOOO@OOOOOOOOOOOOOOO+OOOOOOOOOOOOOOOOOOOOOOO+OOOOOOOOOOOOOOOOOOOOOOOOOOOOOOOOOOOOOOOOOOOOOOOO$OOOOOOOOOOOOOOOOOOOOOOOOOOOOOOOOOOOOOOOOOOOOOO  OOOOOOOOOOOOOOOOOO+OOOOO$OOOOOOOOOOOOOOOOOOOOOOOOOOOOOOOOOOOOOOOO+OOOOOO;",
";OOOOOO@OOOOOO+OOOOOOOOOOOOOOOOOOOOOOOO$OOOOOOOOOOOOOOOOOOOOOOOOOOOOOOOOOOOOOOOOOOOOOOOOOOOO$OOOOOOOOOOOOOOOOOOOOOOOOOOOOO+OOOOOOOOOOOOOOOOOOOOOOOOOOOOOOOOOOOOOOOOOOOOOOOOOOOOO$$OOOOOOOO+OOOOOOOOOOOOOOOOOO@OOOOOOOOOOOOOOOOOOOOOOOOOOOOOOO@OOO+OOOOOOO;",
";OOOOOOOOOOO$OOOOOOOOOOOOOOOOOOOOOOOOOOOOOOOOOOOOOOOOOOOOOOOOOOOOOOOOOOOOOOOOOOOOOOOOOOOOOOO@OOOOOOOOOOOOOOOOOOOOOOOOOOOOOOOOOOOOOOOOOOOOOOOOOOOOOOOOOOOOOOOOOOOOOOOOOOOOOOOO$OOOOOOOO@OOOOOOOOOOOOOOOOOOOOOOOOOOOO@OOOOOOOOOO$OOOOOOOOOOO+OOOOOOOOOOOOOO;",
";@OOOO$@OOOOO$OOOOOOOOOOOOOOO$OOOOOOOOO+OOOOOOOOOOOOOOOOOOOOOOOOOOOOOOOOOOOOOOOOOOOOOOOOOOOOOOOOOOOOOOOOOOOOOOOOOOOOOO$OOOOOO@OO$$OOO$OOOOOOOOOOOOOOOOOOOOOOOOOO@OOO$OOOOOOOOOOOOOOOOOOOOOOOOOOOOOO$$OOOOOOOOOOOOOOOOOOOOOOOOOOOO@OOOOOOOOOOOOOOO&OOOOOOO;",
";OOOOOOOO+OOOOOOOOOOO$OOOOOOOOOOOO+OOOOOOOOOOOOOOOOOOOOOOOOOOOOOOOOOOOOOOOOOOOOOOOOOOOOOOOOOOOOOOOOOOOOOOOOOOOOOOOOOOOOOOOOOOOOOOOOOOOOOOOOOOOOOOOOOOOOOOOOOOOOOOOOOOOOOOOOOOOOOOOOOOOOOOOOOOOOOOOOOOOOOOOOO$OOOOOOOOOOOOOOOOOOOOOOOOOOOOOOOOOOOOOOOOO$OO;",
";OOOOOOOOO@OOOOOOOOOOOOOO@OO@OOOOOOOOOOOOOOOOOOOOOOOOOOOOOOOOOOOOOOOOOOOO+OOOOOOOOO@OOOOOOOOOOOOOOOOOOOOOOOOOOOO@OOOOOOOOOOOOOOOOOOOOOOOOOOOOOOOOOOOOOOOOOOOOOOOOOOOOOOOOOOOOOOOOOOOOOOOOOOO$OOOOOOOOOOOO@OOOOOOOOOOOOOOOOOOOOOOOOOOOOO+OOOO+OOOOOOOOOOOO;",
";OOOOO@OOOOOOOOOO@OOOOOOO$OOOO+OOO&OOOOOOOOOOOOOOOOOOOOOOOOOOOO@OOOOOOOOOOOOOOOOOOOOOOOOOOOOOOOOOOOOOOOOO@OOOOOOOOOOOOOOOOOOOOOOOOOOOOOOOOOOOOOOOOOOOOOOOOOOO@OOOOOOOOOOOOOOOOOOOOOO$OOOOOOOOOOOOOOOOOOOOOOOO$OOOOOOOOOOOOOOOOOOOOOOOOOOOOOOOOOOOOOOOOOOO;",
";OOOOOOOOOOOOOOOOOOOOOOOOO$OOOOOOOOOOOOOOOOOOOOOO+OOOOOOOOOOOOOOOOOOOOOOOOOOOOOOOOOOOOOOOOOOOO@OOOOOOOOOOOOOOOOOOOOOOOOOOOOOOOOOOOOOOOOOOOOOOOOOOOOOOOOOOOOOOOOOOOOOOOOOOOOOOO@OOOOOOOOOO#OOOOOOOOOOOOOOOOOOOOOOOOOOOOOOOOOOOOOOOOOOOOOOOOOOOOOOOOOOOOOOO;",
";O@OOOOOOOO@OOOOOOOOOOOOOOOOOOOOOOOOOOO&OOOOOOOOOOOOOOOOOOOOOOOOOOOOOOOOO$OOOOOOOOOOOOOOOOOOOOOOOOOOOOOOOOOOOOOOOOOOOOOOOOOOOOOOO$OOOOOO@OOOOOOOOOOOOOOOOOOOOOOOOOOOOO@OOOOOOOOOOOOOOOOOOOOOOOOOOOOOOOOO@OOOOOOOOOOOOOOOOOOOOOOOOO@OOOOOOOOOOOOOOOOOOOOOO;",
";OOOOOOOOOOOOOOOOOOOOO@OOOOOOOOOOOOOOOOOOOOOOO@OOOOOOOOOOOO$OOOOO$OOO@OOOOO@OOOOOOOOOOOOOOOOOOOOOOOOOOOOOOOOOOOOOOOOOOOOOOOOOOOOO+OOOOOOO@OOOOOOOOOOO+OOOOOOOOOOOOOOOOOOOOOOOOOOOOO$OOOOOOOOOOOOOOOO+OOOOO$OOOOOOOOO$OOOOOOOOOOOOOOOOOOOOOOOOOOOOOOOOOOOO;",
";OOOOO+OOOOOOOOOOOOOOOOOOOOOOOOOOOOOOOOOOOOOOOOOOOOOOOOOOOOOOOOOOOOOO+OOOOOOOOOOOOOOOOOOOOOOOOOOOOOOOOOOOOOOOOOOOOOOOO@OOOOOO+OOOOOOOOOOOOOOOOOOOOOOOOOOOOOOOOO$OOOOOOOOOOOOOOOOOOOOOOOOOOOOOOOOOOOOOOOOOOOOOOOOOOOOOOOOOOOOOOOOOOOOOOOOOOOOOOOOOOO$@OOOO;",
";OOOOOOOOOOOOOOOOOO$OOOOOOOOOOOOOOOOOOOOOOOOOOOOOOOOOOOOOOOOOOOOOOOOOOOOOOOOOOOOOOOOOOO$$OOOOOOOOOOOOO+OOOOOOOOOOOOOOOO@OOOOOOOOOOOOOOOOOOOOOOOOOOOOOO+OOOOOOOOOOOOOOOOOOOOOOOOOOOOOOOOOOOOOO++OOOOOOO@OOOOOOOO@OOOOOOO+OOOOOOOOOOOOOOOOOOOOOOOO$OOOOO$OO;",
";+OOOOOOOOOOOOOOOOOO$OOOOOOOOOOOOOOOOOOOOOOOOOOO+OOOOOOOOOOOOOOOOOOOOOOOOOOOOOOOOOOOOOOOOOOOOOOOOOOOOO$OOOOOOOOOOOOOOOOOOOOOOOOOOOOOOOOOOOO$OOOOOOOOOO@OOOOOOOO@OOOOOOOOOOO@OOOOOOOOOOOOOOOOOOOOOOOOOOOOOOOOOOOOOOOOOOOOOOOOOOOOOOOOOOO@OOOOOOOOOOOOOOOO$;",
";OOOOO$OOOOOOOOOOOOOOOOOOOOOOOOOOOOOO@@OOOOOOO+OOOOOOOOOOOOOOOOOOOOOOOOOOOOOOOOOOOOOOOOOOOOOOOOOOOOOOOO@OOOOOOOOOOOOO+OOOOOOOOOOOOOOOOOOOOOOOOOOOOOOOOO$OOO@OOOOOOOOOOOOOOO@OOO+OOOOOOOOOOOOOOOOOOOOOOOOOOOOOOOOOOOOOOOOO@OOOOOOOOOOOOOOOOOOOO+OOOOOOOOOO;",
";OOOOOOOOO+OOOO$OOOOOOOOOOOOOOOOOOOOOOOOOOOOOOOOOOOOOOOOOOOOOOOOOOOOOOOOOOOOOOOOOOOOOOOOOOOOOOOOOOOOOOOOOO+OOOOOOOOOOOOOOOOOOOOOOOOOOOOOOOO+OOOOOOOO@OOOOOOOOOOOOOOOOOOOOOOOOOOOOOOOOOOOOOOO@OOOOOOOOOOOOOOOOOOOOOOOOOOOOOOOOOOOOOOOOO+OOOOOOOOOOOOOOOOO@;",
";OOOOOOOOOOOOOOOO+OOOOOOOOOOOOOOOOOOOOOOOOOOOOOOOOOOOOOOOO@OOOOOOOOOOOOOOOOOOO+OOOOOOOOOOOOOOOOOOOOOOO$OOOOOOOOOOOOOOOOOOOOOOOOOO@OOOOOOOOOOOOOOOOOOO+OOOOO$OOOOOOOOOOOOOOOOOOO$OOOOOOOOOOOOOOOOOOOOOOOOOOOOOOOOOOOO$OOOOOOO$$OOOOOOOOOOOOOOOOOOOOOOOOOOO;",
";OOOOOOOOOOOOOOOOOO$OOOOOOOOOOOOOOOO@OOOOOOOOOOOOOOOOOOOOOOOOOOOOOOOOOOOOOOOOOOOOOO@OOOOOOOOOOOOOOO@+OOOO+OOOOOOOOOOOO&OOOOOOOOOOOOOOOOOOOOOOOOOOOOOOOOOOOOOOOO$OOOOOOOOOOOOOOOOOOOOOOOOOOOOO@OOOOOOOOOOOOOOOOOOOOOOO@OOOOOOOOO@OOOOOOOOOOOOOOOOOOOO@OOOO;",
";OOOOOOOOOOOOOOOOOOOOOOOOOOOOOOOOOOOOOOOOOOO@OOOOOOOOOOOOOOOOO+OOO$OOOOOOOOOOOOOOOOOOOOOOOOOOOOOOOOOOOOOOOOOOOOOOOOOOOOOO$OOOOO$OOOOOOO$OOOOOOOOOOOOOOOOO+OOOOOOOOO$OOOOOOOOOOOO+OOOOOOOOOOOOOOOOOOOOOOOOOO@OOOOOOOOOOOOO+OOOOOOOOOOOOOOOOOOOOOOOOOOOOOOO;",
";OOOOOOOOOOOOOOOOOOOOOOO+OOOOOOOOOOOOOOOO+OOOOOOOOOOOOOOOOOOOOOOOO+OOOOOOOOOOOOOOOOOOOOOOOOOOOOOOOOOOOOOOOOOOOOOOOOOOOOOOOOO$OOOOOOOO+OOOOOOOOOOOOOOOOOOOOOOOOOOOOOOOOOOOOOOOOOOOOOOOOOOOOO@OOOOOOOOOOOOOOOOOOOOOOOOOOOOOOOOOOOOOOOOOOOOOOOOOOOOOOOOOOOOO;",
";OOOOOOOOOOOOOOOOOOOOOOOOOOOOOOOOOOOOOOOOOOOOOOOOOOOOOOOOOOOOOOOOOOOO+OOOOOOOOOOOOOOOOOOOOOOOOOOOOOOOOOOOOOOOOOO+OOOOOOOOOOOOOOOOOOOOOOOOOO$OOOOOOOOOOOOOOOOOOOOOOOOOOOOO@OOOOOOOOOOOOOOOOOOOOO+OOOOOOOOOOOOOOOOOOOOOOOOOOOOOOOOOOOO+OOOOOOOOOOOOOOOOOOOO;",
";OOOOOOOOOOOOOOOOOO+OOOOOOOOOOOOOOOOOOOOOOO+OOOOOOOOOOOOOOOOOO+OOOOOOOOOO$OOOOO@OOOOOOOOOOOOOOOOOOOOOOOOOOOOO%OOOOOOOOOOOOOOOOOOOOOOOOOOOOOOOOOOOOOOOOOOOOOOOOOOOOOOOOOOOOOOOOOOOOOOOOOOOOOO$O@OOOOOOOOOOOOOOO@OOOOOOOOOOOOOOOOOOOOOOOOOOOOOOOOOOOOOOOOOO;",
";OOOOOOOOOOOOOOOOOOOOOOOOOOOOOOOOOOOOOOOOOOOOOOOOOOOOOOOO@OOOOOOOOOOOOOOOOOOOOOOOOOOOOOOOOOOOOOOOOOOOOOOOOOOOOOOOOOOOOOOO+OOOOOOOOOOOOOOOOOOOOOOOOOO@OOOOOOOOOOOOOOOOOOOOOOO+OOOOOOOO+OOOOOOOOOOOOOOOOOOOO@OOOOOO+OOOOOOOOOOOOOOOOOOOOOO$OOOOOOOO+OOOOOOO;",
";O$OOOOOOOOOOOOOOOOOOOOOOOO@OOOOOOOOOOOOOOOOOOOOO@OOOOOOOOOOO+OOOOOOOOOOOOOOOOOOOOOOOOOOOOOOOOOOOOOOOOOOOOOOOOOOOOOOOOOOOOOOOOOOOOOOOOOOOOOOOOOOOOOOOOOOOOOOOOOOOOOOO+OOOOOOOOOOOO+OOOOOOOOOOOOOOOOOOOOOOOOOOOOOOOO@OOOOOOOOOOOOOOOOOOOOOOOOOOO$OOOOOOOOO;",
";;;;;;;;;;;;;;;;;;;;;;;;;;;;;;;;;;;;=;;;;;;;;;--;;;;;;;;;;;;;;;;;;;;;;;;;;;;;;;;;;;;;;;;;;;*;;;;;;;;;;;;;;;;;;;;;;;;;;;;;;;;;;;;;;;;;;;;;;;;;;;;;;;;;;;;;;;;;;;;;;;;;;;;;;;;;;;;;;;;;;;;;;;;;;;;;;;;;;;;;;;;;;;;;;;;*;;;;;;;;;;;;;;;;;;;;;;;;;;;;;;;;;;;;;"
};
