/* XPM */
static char *result[] = {
/* columns rows colors chars-per-pixel */
"250 70 11 1 ",
"  c black",
". c #010000",
"X c #000100",
"o c #000001",
"O c #5A0000",
"+ c #5B0000",
"@ c #5A0100",
"# c #5B0100",
"$ c #5A0001",
"% c #5B0001",
"& c #5A0101",
/* pixels */
"OOOOOOOOOOOOOOOOOOOOOOOOOOOOOOOOOOOOOOOOOOOOOOOOO+OOOOOO@OOOOOOOOOOOOOOOOOOOOOOOOOOOOOOOOOOOOOOOOOO@OOOOOOOOOOOOOOOOOOOOOOOOOOOOOO@OOOOOOOOOOOOOOOOOOOOOOOOOOOOOOOOOOOO$O$OOOOOOO@OOOOOOOOOOO@OOOOOOOOO+OOOOOOOOOOOOOOOOOOOOO+OO+OOOOOOOOOOOOOOOOOOOOOOOOO",
"OOOOOOOOOOOOOOOOOOOOOOOOOOOOOOOOOOOOOOOOOOOOOOOOOOOOOOOOOOOOOOOOOOOOOOOOOOOOOOOOOOOOOOOOOOOOOOOOOOOOOOOOOOOOOOOOOOOOOOOOOOOO+OOOOOOOOOO+OOOOOOOOOOOOOOOOOOOOOOOOOOOOOOOOOOOOOOOOOO@@OOOOOOOOOOOOOO+OOOOOOOOOOOOOOOOOOOOOOOOOOOOOOOOOOOOO$OOOOOOOOOOOOOOOOO",
"OOOOOOOO+OOOOOOOOOO+OOOOOOOOOOOOOOOOOOOOOOOOOOOOOOOOOOOOOOOOOO#OOOOOOOOOOOOOOOOOOOOOOOOOOOOOOOOOOOOOOOOOOOOOOOOOOOOOOOOOOOOOOOOOOOOOOOOOOO$OOOOOOOOOOOOOO$OOOOOOOOOOOOOOOOOOOOOOOOOOOOOOOOOOOOOOOOOOOOOOOOOOOOOOOOOOOOOOO$OOOOOOOOOOOOOOO@OOOOOOOOOOOOOOOO",
"OOOOOOOOOOOOOOOOOOOOOO@OOOOOOOOOOOOOOOOOOOOOOOOOOOOOOOOOOOOOOOOOOOOOOOOOOO$OOOOOOOO$O+OOOOOOOOOOOOOOOOOOOOOOOOOOOOOOOOOOOOOOOOOOOOOOOOOOOOOOOOOOOOOOOOOOOOOOOOOOOOOOOO@OOOOOOOOOOOOOOOOOOOOOOOOOOOOOOOOOOOOOOOOOOOOOOOOOOOOOOOOOOOOOOOOOOOOOOOOOOOOOOOOOOO",
"OOOOOOOOOOOO+OOO+OOOOOOOOOOOOOOOOO@OOO@OOOO@OOOOOOOOOOOOOOOOOOOOOOOOOOOOOOOOOOOOOOOOOOO$OOO+OOOOO+OOOOOOOOOOOOOOOOOOOOOOOOOOOOOOOOOOOOOOOOOOOOOOOOOOOOOOOOOOOOOOOOOOOOOOOOOOOOOOO$OOOOOOOOOOOOOOOOOOO+OOOOOOOOOOOOOOOOOOOOO@OOOOOOOOOOOOOOOOOOOOOOO@OOOOOO",
"OOOOOOOOOOOOOOOOOOOOOOOOOOOOOOOOOOOOOOOOOOOOOOOOOOOOOOOOO@OOOO+OOOOOOOOOOOOOOOOOOOOOOOOO$OOOOOOOOOOOOOOOOOOOOOOOOOOOOOOOOOOOOOOOOOOOOOOOOOOOOOOOOO$OOOOOOOOOOOO@OOOOOOOOOOOOOOOOOOOOOOOOOOOOOOOOOOOOOOOOOOOOOOOOOOOOOOOOOOOOOOOOOOOOOOOOOOOOOOOOOOOOOOOOOO",
"OOOOOOOOOOOOOOOO+OOOOOOOOOOOOOOOOOOOOOOOOO@O+OOOOOOOOOOOOOOOOOOOOOOOOOOOOOOOOOOOOOOOOOOOOOOOO$OOOOOOOOOOOOOOOOOOOOOOOOOOOOOO+OOO$O+OOOOOOOOOOOOOOOOOOOOOOOOOOOOOOOOOOOOOO+OOOOOO@OOOOOOOOOOOOOOOOOOOOOOOOOOOOOOOOOOOOOOOOOOOOOOOOOOOOOOOOOOOOOOOOOOOOOOOOO",
"OOOOOOOOOOOOOOOOOOOOOOOOOOOOOOOOOOOOOOOOOOOOO@OOO@OOOOOOOOOOOOOOOOOOOO@OOOOOOOOOOOOOOOOOOOOOOOOOOOOOOOOOOOOOO@OOOOOOOOOOOO+OOOOOOOOOOOOOOOOOOOOO@OOOOOOO+OOOOOOOOOOOOOOOOOOOOOOOOOOOOOOOO@OOOOOOOOOOOOOOOOOOOOOOOOOOOOOOOOOOOOOOOOOOOOOOOOOOOOOOOOOOOOO+OO",
"OOOOOOOOOOOOOOOOOOOOOOOOOOOOOOOOO@OOOOOOOO$OOOOOOOOOOO$OOOOOOOOOOOOOOOOOOOOOOOOOOOOO+OOOOOOOOOOOOOOOOOOOOOO@OOOOOOOOOOOOOOOOOOOOOOOOOOOO@OOOOOOOOOOOOOOOOOOOOOOOOOOOOOOO+OOOOO@OOOOOOOOOOOOOOO$OOOOOOOOOOOOOOOOOOOOOOOOOOOOOOOOOOOOOOOOOOOOOOOOOOOOOO@OOOO",
"O$OOOOOOOOOOOOOOOOOOOOOOOOOOOOOOO+OOOOOOOOOOOOOOOOOOOOOOOOOOOOOOOOOOOO@OOOOOOOOOOOOOOOO   OOOO+OOOOOOO+OOOOOOOOOOOOOOOOOOOOOOOOOOOOOOOOOO@@OOOOOOOOOOOOOOOOOOOOOOOOOOOOOOOOOOOOOOOOOOOOOOOOOOOOOOOOOOOOOOOOOOOOOOOOOOOOOOOO+OOOOO+OOOOOOOOOOOOOOOOOOOOOOOO",
"OOOOOOO$O$OOOOOOOOOOOOO$OOOOOOOOOOOOOOOOOOOOOOOOOOOOOOOOOOOOOOOOOOOOOOOOOOOOOOOOOOOOO+O  XOOOOOOOOOOOO$++OOOOOOOOOOOOOOOOOOOOOOOOOOOO+OOOOOOOOOOOOOOOOOOOOOOOOOOO$OOOOOOOOOOOOOOOOOOOOOOOOOOOOOOOOOOOOOOOOOOOOOOOOOOOOOOOOOOOOOOOOOOOOOO@OOOOOOOOOOOOOOOOO",
"OOOOOOO+OOOOOOOOOOOOOOOOOOOOOOOOOOOOOOOOOOOOOOOOOOOOOOOOOOOOOOOOOOOO$OOOOOOOOOOOOOOO+OO   OOOOOOOOOOOOOOOO$O@OOOOOOOOOOOOOOOOOOOOOOOOOOOOOOOOOOOOOOOOOOOOOOOOOOOOOOOOOOOOOOOOOOOOOOOOOOOOOOOOOOOOOOOOOOOOOOOOOOOO@OOOOOOOOOOOOOOOOOOOOOOOOOOOOOOOOOOOOOOOO",
"OOOOOOOOOOOOOOOOOOOOOOOOOOOOOOOOO+OOOOOOOOOOOOO@OOO@O+O+OOOOOOOOOOOOOO   X      OOOOOOO  .X    OOOO+OOOOOOOOOOOOOOOO@OOOOOOOOOOOOOOOOOOO$OOOOOOOOOOOOOOOOOOOOOOOOOOO&OOOOO$OOOOOOOOOOOOOOOOOOOOOOOO$OOOOOOOOOOOO$OOOOOOOOOOOOOOOOOOOOOOOOOOOOOOOO@OOOOOOO+",
"OOOOOOOOOOOOOOOOOOOOOOOOOOOOOO$OOOOOOOOOOOO@OOOOOOOO$OOOOOOOOOO$+OOOOO  .       OOOOOOO        OOOOOOOOOOOOOOOOOOOOOOOOOOOOOO$OOOOOOOOOOOOOOOOOOOOOOOOOOOO$OOOO$OOOOOOOOOOOOOOOOOOOOOOOOOOOOOOOOOOOOOOOOO+OOOOOOOOO$OOOOOOOOOOOOOOOOOOOOOOOOOOOOOOOOOOOOOO",
"OOOOOOOOOO@OOOOOOOOOOOOOO                                            oOOOOO$OOOOOOOOOOO   +OOOO       $OOOOOOOOOOOO@OOOOOOOOOOOO++OOOOOO+OOO+OOOOO@OOOOOOOOOOOO@OOOOOOOOOOOOOOOOOOOOOOOOOOOOOOOOOOOOOOOOOOOOOOOO$OOOOOOOOO+OOOOOOOOOOOOOOOOOOOOOOOOOOOOO@O",
"OOOOOOOOOOOOOOOOOOOOOOOOO             o                               OOOOOOOOOOOOOOOOO   OOOOO  .    OOOOOOOOOOOOOOOOOOOOOOOOOOOO+OOOOOOOOOOOOOOOOOOOO$OOOOOOOO@OOOOOOOOOOOOOOOOOOOOOOOOOOOOOOOOOOOOOOOOOOOOOOOOOOOOOOOOOOOOOOOOOOOOOOOOOOOOOOOOOOOOOOOOO",
"OOOOOOOOOOOOOOOOOOOOOOOOOOOOOO+OOOOOOOOOOOO  OOOOOOOOOOOOOOOOOOOOOOOOOOOOOOOOOOOOOOOOOO   OOOOOOOOOO$OOOOOOOOOOOOOOOOOOOOOOOOO+             OOOOOO@OOOOOOOOOOOOOOOOOOOO+O+OOOOOOOOOOOOOOOOOOOOOOO             OOOOOOOOO$OOOOOOOOOOOOOOOOOOOOOOOOOOOOOOOOOO",
"OOOOOOOOOOOOOOOOOOOOOOOOOOOOOO$OOOOOOOOOOOO  OOOOOOOOOOOOOOOOOOOOOOOOOOOOOOOOOOOOOOOOOO.  OOOOOOOOOOOOOOOOOOOOOOOOOOOOOOOOOOOOO           o OOOOOOOOOOOOOOOOO$OOOOOOOOOOO$OOOOOOOOOOOOOOOOOOOOOOO             OOOOOOOOOOOOOOOOOO@OOOOOOOOOOOOOO@OOOOOOOOOO",
"OO$OOO@OOOOOOOOOOOOOOOOOOOOOOO+OOOOOOOOOOOO  OOO$OOOOOOOOOOOOOOOOOOOOOOOOOOOOOOOOOOOOOO   OOOOOOOOOOOOOOOOOOOOOOOOOOOOOOOOOOOOO .           OOOOOOOOOOOOOOOOOOOO+OOOOOO+OOOOOOOOOOO@OOOOOOOOOOOOO           . OOOOOOOOOOOOOOOOOOOOOOOOOOOOOOOOO$OOOOOOOOOO",
"@OOOOOOOOOOOOOOOOOOOOOOOOOOOOOOOOOOOOOOOOOO  +OOOOOOO@@OOOOOO$OOOOOOOOOOOOOOOOOOOOOOOOO   OOOOOOOOOOOOOOOOOOOOOOOOOOOOOOOOOOO  OOOOOOOOOOOOO  OOOOOOOOOOOOOOOOOOOOOOOO@OOOOOO  OOOOO      o      OOOOOOOO@OOOOOOOOOOOOOOOOOOOOOOOOOOOOOOOOOOOOOOOOOOOOOOOO",
"OOOOOOOOOOOOOOOOOOOOOOOOOO$O$$OOOOOOOOOOOOO  OO$OOOOO@OOOOOOOOOOOOOOOOOOOOOOOOOOOOOOOOO   OOOOOOOOOOO@OOOO@OOOOOOOOOOOOOOOOOO  OOOOOOOOOOOO@  OOOOOOOOOOOOOOOOOOOOOOOOO@OOOOO  OOOOO    .        OOOOOOOOOOOOOOOOOOOOOOOOOOOOOOOOOOOOO$OOOOO$OOOOOOOOOOOOO",
"OOOOOOOOOOOOOOOOOOOOOOOOOOOOOOO$OOOOOOO+OOO  OOOOOOOOOOOOOOOOOOOOOOOOOOOOOOO+OOOOOOOOOO   OO OOOOOOOO+OO$OOOOOOOOOOOOOOO$OOOO. OOOOOOOOOOOOOOOOOOOOOOOOOOOOOOOOOO+OOOOO             O@OOOOOOOOOOOOOOOOOOOOOOO+OOOOOOOOO$OOOOOOOOOOOOOOOOOO+OOOOOOOOOOOOO@O",
"OOOOO@OOOOOOOOOOOOOOOOOOOOOOOOOO+OOOOOOOOOO  OOOOOOOOOOOOOOOOOOOOOOOOOOOOOOOOOOOOOOOO+O  .OO O+OOOOOOOOOOO+OOOOOOOOOOOOOOOOOO  OOOOOOOOOOOOOOOOOOOOOOOOOOOOOOOOOOOOOOOO   o         OOOOOOOOOOOOOOOOOOOOOOOOOOOOOOOO@OOOOOOOOOOOOOOOOOOOOOOOOOOOOOOOOOOOOO",
"OOOOOOOOOOOOOOOOOOOOOOOOOOOOOOOOOOOOOOOOOOO  OOOOOOOOOOOOOOOOOOOOOOOOOOOOOOOOOOOOOOOOO+     OOOOOOOO@OOOOOOOOOOO@OOOOOOOOOOOO  O&OOOOOOOOOOOOOOOOOOOOOOOOOOOOO         OO$OOO  OOOOOOOOOOOOOOOOOOOOOOOOOOOOOOOOOOOOOOOOOOOOOO++OOOOOOOOOO$O@OOOOOOOOO@OOOO",
"OOOOOOOOOOO@OOOOOOOOOOOOOOOOOOOOOOOOO++OOOO  OOOOOOOOOOOOOOOOOOOOOOOOOOOOOOOOOOOOOOOO+O     OO$OOOOOOOOOOOOOO+O@OOOOOOOOOOOOO  OOOOOOOOOOOOOOOOOOOOOOOOOOOOOOO         OOO++O  +OO+OOOOOOOOOOOOOO+OOO@+OOOOOO+O@OOOOOO@OOOOOOOO#OOOOOOOO+OOOOO@OOOOOOOOOOO",
"OOOOOOOOOO$OOOOOOOOOOOOOOOOOOOOOOOOOOOOOOOO  OOOOOOOOOOOOOOOOOOOOOOOOOOOOOOOO$$$OOOOOOO     OOO$OOOOOOOOO$OOOOOOOOOOOOOOOOO$@  OOOOOOOOOO++OOOOOOOOOOOOOOOOO$O         $OOOOO  OOOOOOOOOOOOOOOOOOOOOOOOOOOOOOO@OOOOOOOOOOOOOOOOOO+OOOOOOOOOOOOOOOOOOOOOOOO",
"OOOOOOOOOOOOOOOOOOOOOOOOO$OOOOOOOOOOOOOOOOOOO   OOOOOOOOOOOOO$OOOOOOOOOOOOOOOOOOOOOOOOO     OOOOOOOOOOOOOOOOOOOOOOOOOOOOOOOOO  OOOOO$OOOOOOOOOOOOOOOOOOOOOO   @OOOOOOOOOOOOOO  OOOOOOOOOOOOOOOOOOOOOOOOOOOOOOOOOOOOOOOOOOOOOOOOOOOOOOOOOOOOOOOOOOOOOOOOOOO",
"OOOOOOOOOOOOOOOOOOOOOOOOOOOOOOOOOOOOOOOOOOOOO   OOOOOOOOOOO$OOOOOOOOOOOOOOOOOOOOOOOOO+O     OOOOOOOOOOOOOOOOOOOOOOOOOOOOOOOOO  OOOOOOOO+OOOOOOOOOOOOOOOOOOOX  OO$O+OOOOOOOOOO  OOOOOOO$@OOOOOOOOOOOOOOOOOOOOOO+OOOOOOOOOOOOOOOOOOOOOOOOOOOO@OOOOOOO+OOOOOO",
"OOO+OOOOOOOOOOOOO$O$OOOOOO@OOOOOOOOOOOOOOOOOO   OOOOOOOOOOO$OOOOOOOOOOOOOOOOOOO$OOOOOOO     O               OOOOOOOOOOOO+OOOOOO   $OOOOOOOO+O+OOOOOOOO$O   OOOOOOOOOOOOOOOOOO  OOOOOOOOOOOOOOOOOOOOOOOOO+OOOOOOOOOOOOOOOOOOOOOOOOOOOOOO$O%OOOOOOOOOOOOOOOO",
"OOOOOOOOOOOOOOOOOOOOOOOOOOOOOO@OOOOO@OOOOOOOO   OOOOOOOOOOOO$OOOOOOO+OOOOOOOOO++OOOOOOO     O               OOOOOOOOOOOOOOOOOOO   OOOOOOOOOOOOO+OOOOOOOO   OOOOOOOOO+OO@OOOOO  @OOOOOOOOOO+OOOOOOOOOOOOO$O+OOOOOOOOOOOOOOOOOOOOOOOOOOOOOO$OOOOOOOOOOOOOOOO",
"O$OOOOOOOOOOOOOOOOOOOOOOOOOOOOOOOOOOOOOO$OOOO   OOOOOOOOOOOOOOOOOOOOOOOOOOOOOOOOOOOOOOO X   OOOOOOOOOOOOOOOOOOOOOOOOOOOOOOOOOOOOOO   OOOO@OOOOOOOOOOOO  OOOOOOOOOOOOO@OOOOOOO  OOOOOOOOOOOOO+OOOOOOOOOOOOOOOOOO+OOOOOO$OOOOOOOOOOOOOOO$OOOOOOOOOOOOOOOOOOO",
"OOOOOOOOOOO+OOOOOOOOOOOOOOOOOOOOOOOOOOOOOOOOO   OOOOOOOOOOO@O$OOOOOOOO$OOOOOOOOOOOOOOOO     OO$OOOOOOOOOOOOOOOOOOOOOOOOOOOOOOOOOOO   OOOOOOOOOOOOOOOOO  OOOOOO@OOOOOOOOOOOOOO  OOOOOOOOOOOOOO@OOOOOOOOOOOOOOOOOOOOOOOOOOOOOOOOOOOOOOOOOOOOOOOOOOOOOOOOOOOO",
"OOOOOO@OOOOO++$OOOOOOOOOOOOOOOOOOOOOOOOOOOOOO   OOOOOOO@OOOOOOOOOO@OOOOOOOOOOOOOOOOOOOO     OOOOOOOO@OOOOOOOOOOOOOOOOO$$OOOOOOOOOO   OOOOOOOOOOOOOOOOO  OOO@OOOOOOOOOOOOOOOOO  OOOO@OOOOOOOOOOOOOOOOOOOOO@OOOOOOOOOOO+OOO$OOOOOOOOOOOOOOOOOOOOOOOOOOOOOOOO",
"O+OOOOOOOOOOOOOOOOOOOOOOOOOOO$OOOOOOOOOOOOOOO   OOOOOOOOO@OOO$OOO@OOOOOOOO@OOOOOOOOOOOOOOO  OO@OOOOOOOOOOOOOOOOOOOOOOOOOOOOOOOOOOOO  OOOOOOOOOOOOOOOOOOOOOOOOO@OOOOOOOOOOOOOOOO  OOOO@OOOOOOO+OOOOOOOOOOOOOOOOO$OOOOOOOOOOOOOOOOOOOOOOOOOOOOOOOOOOOOOOOOOO",
"OOOOOOOOOOOOOOOOOOOOOOOO+OOOOOOO+OOOOOOOOOOOO   OOOOOOOOOOOOOOOO$OOOOOOOOOOOOOOOOOO@OOOOOO  OOOOOOOOOOOOOOOOOOOOOOOOOOOOOOOOOOOOOOO  OOOOOOOOOOOOOOOOOOOOOOOOOOOOOOOOOOOOOOOOOO  OO$OOOOOOOOOOOO$OOOOOOOOOOOOOOOOOOOOOOOOOOOOOOOOOOOOO@OOOOOOOOOOOOOOOOOOO",
"OOOOOOOOOOOOOOOOOOOOOOOOOOO@OOOOO+OO$OO@OOOOO   OOOOOOOOOOOOOOOOOOOOOOOOOOOOOOOOOOOOOOO     OOOOOOOOO@OOOOOOOOOOOOOOOOOO++OOOOOOO+O  OOOOOOOOOOOOOO@OOOOOOOOOOOOOOOOOOOOOOOOOOO  OOOOOOOOOOOOOOOOOOOOOOOOOOOOOOOOO$OOOOOOOOOOOOOOOOOOOOOOOOOOOOOO$OOOOOOOO",
"OOOOOOOOOOOOOOOOOOOOOOOOOOOOOOO+OOOOOOOOOOOOO   OOOOO$OOOOOOOOOOOOOOOOOOOOOOOOOOOOOOOOO     OOOOOOOOOOOOOOOOOOOOOOOOOOOOOOOOOOOOOOO  OOO+OOOOOOOOOOOOOOOOO$OO@OOOOOOOOOOOOOOOOO  OOOOOOOOOOOOO+OOOOOOOOOOOOOOOOOOOOOOOOOOOOOOOOOOOOOOOOOOOOOOOOOOOOOOOOOOO",
"OOOOOO+OOOOOOOOOOOOOOOOOOOOOOOOOOOOOOOOOOOOOOOOO  OOOOOOOOOOOOOOOOOOOOOOOOOOOOOOOOOO@OO           .                      o.  OOOOOO. OOOOOOOOOOOOOOOOOOOOOOOOOOOOOOOOOOOOOOOOOO  OOOOOOOOOOOOOOOOOOOOOOOOOOOOOOOOOOOOOOOOOOOOOOOOOOOOOOOOOOOOOOOOOOOOOOOOO",
"OOOOOOOO#@OOOOOOOOOOOOOOOOOOOO$OOOOOOOOOOOOOOOOO  OOO+OOOOOOOOOOOOOOOOOOOOOOOOOOOOOOOOO                                   X  OO$OOO  OOOOOOOOOOOOOOOOOOOOOOOOOOOOOOOOOOOOOOOOOO  OOOOOOOOOOOOOOOOOOOOOOOOOOOOOOOOOOOOOOOOOOOOOOOOOOOOOOOOOOOOOOOOOOOOOOOOO",
"OOOOOOOOOOOOOOOOOOOOOOOO+O$OOOOOOOOOOOOOO@OOOOOO  OOOOOOOOOOOOOO@OOO+O$OOOOOOOOOOOOOOOO  .           o                    o  OOOOOO  OOOOOOOOOOOOOOOOO$O&OOOOOOOOOOOOOOOOOOOOOO  OOOOOOOOOOOOOOOOOOOOOOOOOOOOOOOOOOOOOOOOOOOOOOOOOOOOOOOOOOOOOOO$OOOOOOOOO",
"OOOOOOOOOOOOOOOOOOOOOOOOOOOOOO+OOOOOO@OOOOOOOOOO  OOOOOOOOOOOOOOOOOOOOOOOOOOOOOOOOOOOOO     OO@OOOOOO@OOOOOOOOOOOOOOOOOOOOOOOOOOOOO    OOOOOOOOOOOOOOOOOO$$OOOOOOOOOOOOOOOOOOOO  OOOOOOOOOOOOOOOOOOOOOOOOOOOOOOOOOOOOOOOOOOOOOOOOOOOOOOOOOOOOOOOOOOOOOOOOO",
"OOOOOOOOOOOOOOOOOOOOOOOOO+@OO+OOOOOOOOOOOOOOOOOO XOOOO@OOOOOOOOOOOOOOOOOOOOOOOOOOOOOOOO     OOOOOOOOOOOOOOOOOOOOOOOOOO@OOOOOOOOOOOO    OOOOOOOOOOOOOOOOOOOOOOOOOOOOOOOOOOOOOOOO  OOOOOOOOOOOOOOOOOOOOOOOOOOOOOOOOOOOOOOOOOOOOOO$OOOOOOOOOOOOOOOOOOOOOOOOOO",
"OOOOOOOOOOOOOOOOOOOOOOOOOOOOOOOOOOOOOOOOOOOOOOOO  OO$OOOOOOOOOOOOOOOOOOOOOOOOO$$OOOOOOO     OOOOOOOOOOOOOOOOOOOO@OOOOOOOOOOOOOOOOO OOOOOOOOOOOOOOOOOO+OOOOOOOOOOOOOOOO+OOOOOOOO  OOOOOOOOOOOO#OOOOOOOOOO$OOOOOOOOOOOO$OOOOOOOOOOOOOOOOOOOOOOOO+OOOOOOOOOOO",
"OOOOOOOOOOOOO@OOOOOOOOOO$OOOOOOOOOOOOOOOOOOOOOOO  OOOO+OOOOOOOOOOOOO@OOOOOOOOOOOOOOOOOO     OOOOOOOOOOOOOOOOOOOO+OO$OOOOOOOOOOOOOO OOOOOOOOO++OOOOOOOOOOOOOOOOOOOOOOOOOOOOOOOOO  OOOOOOOOOOOOOOOOOOOOOOOOOOOOOOOOOOO+OOOOOOOOOOOOOOOOO#OOOOOO$OOOOOOOOOOO@",
"OOOOOOOOOOOOOOO@OOOOOOOOOOOOOOOOO$OOOOOO$OOOOOOOOOOOOOOOOOOO+OOO+OOOOOOOOO+OOOOOOOOOOO@OOOOOOOOOOOOOOOOOOOOOOOOOOOOOOOOOOOOOOOOOOOOOOOOOOOOOOOOOO$OOOOOOOOOOOO@OOOOOOOOOOOOOOOO  @OOOOOOOOOO+OOOOOOOOOOOOOOOOOOOOOOOOOOOOOOOOO$OOOOOOOOOOOOOOOOOOOOOOOOOOO",
"OOOOOOOOOOOOOO$OOOOOOOOOOOOOOOOOOOOOOOOOOOOOOOOOOO+OOOOOOOOOOOOOOOOOOOOOO+OOOOOOOOOOOOOOOOOOOOOOOOOOOOOOOOOOOOOOOOOOOOOOOOOOOOOOOOOOOOOOOOOOOOOO+OOOOOOOOOOOOOOOOOOOOOOOOOOOOOO. $OOOOOOOOOOOOOOOOOOOOOOOOOOOOOOOOOOOOOOOOOOOOOOOOOOOOOOOOOOOOOOOOOOOOOOO+",
"O$OOOOOOOOOOOOOOOOOO@OOOOOOOOOOOOOOOOO@OOOOOOOOOOOOOOOO+OOOOOOOOOOOOOOOOOOOOOOOOOOOOOOOOOOOOOOOOOOOOOOOOOOOOOOOOOOOOOOOOOOOOOOOO$OOOOOOOOOOOOOOOOOOOOOOOOOOOOOOOOOOOOOOOOOOOO+O  OOOOOOOOOOOOOOOOOOOOOOOOOOOOOOOOOOOOOOOOOOOOOOOOOOOOOOOOOOOOOOOOOOOOOOOOO",
"OOOOO$O@OOOOOOOOOOOOOOOOOOOOOOOOOOOOOOOOOOOOOOOOOOOOOOOO$OOOOOOOOOO@OOOOOOOOOOOOOOOOOOOOO@OO$OOOOOOOOOOOOOOOOOOOOOOOOOOOOO+OOOOOOOOOOOOOOOOOOOOOOOOOOOOOOOOOOOOOOOOOOOOOOOOOOOOO$$OOOOOOOO+OOOOOOO@O+OOOOOOOOOOOOOOOOOOOOOOOOOOOOOOOOOOOOOOOO@OOO+OOOOOOOO",
"OOOOOOOOOOOO$OOOOOOOOOOOOOOOOOOOOOOOOOOOO$OOOOOOOOOOOOOOOOOOOOOOOOOOOOOOOOOOO@OOOOOOOOOOOOOOOOOOOOOOOOOOOOOOOOOOOOOOOOOOOOOOOOOOOOOOOOOOOOOOOOOOOOOOOOOOOOOOOOOOOOOOOOOOOOOOO$OOOOOOOO@OOOOOOOOOOOOOOOOOOOOOOOOOOOO@OOOOOOOOOO$OOOOOOOOOOO+OO$OOOOOOOOOOOO",
"O@OOOO$OOOOOO$OOOOOOOOOOOOOOO$OOOOOOOOO+OOOOOOOOOOOOOOOOOOOOOOOOOOOOO+OOOOOOOOOOOOOOOOOOOOOOOOOOOOOOOOOOOOOOOOOOOOOOOO$OOOOOO@OO$OOOO$OOOOOOOOOOOOOOOOOOOOOOOOOO#OOO$OOOOOOOOOOOOOOOOOOOOOOOOOOOOOO$$OOOOOOOOOOOOOOOOOO+OOOOOOOOO@OOOOOOOOOOOOOOO&OOOOOOOO",
"OOOOOOOOO+OOOOOOOOOO$$OOOOOOOOOOOOOOOOOOOOOO+OOOOOOOOOOOO@OOOOOOOOOO$OOOOOOOOOOOOOOOOOOOOOOOOOOOOOOOOOOOOOOOO@OOOOO$OOOOOOOOOOOOOOOOOOOOOOOOOOOOOOOOOOOOOOOOOOOO$OOOOOOOOOOOOOOOOOOOOOOOOOOOOOOOOOOOOOOOOOOO$OOOOOOOOOOOOOOOOOOOOOOOOOOOOOOOOOOOOOOOOO$OO+",
"OOOOOOOOOOOOOOOOOOOOOOOOO@@$OOOOOOOOOOOOOOOOOOOOOOOOOOOOOO$OOOOOOOOOOOOO$OOOOOOOOOOOOOOOOOOOOOOOOOOOOOOOOOOOOOOOOOOOOOOOOOOOO+OOOOOOOOOOOOOOOOOOOOOOOOOOOOOOOOOOOO+OOOOOOOO@OOOOOOOOOOOOOOOO$OOOOOO$OOOOO@OOOOOOOOOOOOOOOOOOOOOOOOOOOOOOOOOO+OOOOOOOOOOOOO",
"OOOOOO@OOOOOOOOOOOOOOOOOO$OOOO+OOO$OOOOOOOOOOOOOOOOOOOOOOOOOOOOOOOOOOOOOOOOOOOOOOOOOOOOOOOOOOOOOOOOOOOOOO@OOOOOOOOOOOOOOOOOOOOOOOOOOOOOOOOOOOOO$OOOOOOOOOOOOO@OOOOOOOOOOOOOOOOOOOOOO$OOOOOOOOOOOOOOOOOOOOOOOO$OOOOOOOOOOOOOOOOOOOOOOOOOOOOOOOOOOOOOOOOOOOO",
"OOOOOOOOOOO@OOOOOOOOOOOOOOOOOOOOOOOOOOOOOOOOOOOOOOOOOOOOOOOOOOOOOOOOOOOOOOOOOOOOOOOOOOOOOOOOOOOOOOOOOOOOOOOOOOOOOOOOOOOOOOOOOOOOOOOOOOOOOOOOOOOOOOOOOOOO+OOOOOOOOOOOOOOOOOOOOO@OOOOOOOOOO@OOOOOOOOOOOOOOOOOOOOOOOOOOOOOOOOOOOOOOOOOOOOOOOOOOOOOOOOOOOOOOOO",
"OO@OOOOOOOOOOOOOOOOOOOOOOOOOOOOOOOOOOOO$OOOOOOOOOOOOOO$OOOOOOOOOOOOOOOOOOOOOOOOOOOOOOOOOO$OOOOOOOOOOOOOOOOOOOOOOOOOOOOOOOOOOOOOOOOOOOOOO@OOOOOOOOOOOOOO@OOOOOOOOOOOOOO@OOOOOOOOOOOOOOOOOOOOOOOOOOOOOOOOOOOOOOOO$OOOOOOOOOOOOOOOOOO@OOOOOOOOOOOOOOOOOOOOOOO",
"OOOOOOOOOOOOOOOOOOOOOO@OOOOOOOOOOOOOOOOOOOOOOOOOOOOOOOOOOOO$O$OOO$OOOOOOOOO@OOOOOOOOOOOOOOOOOOOOOOOOOOOOOOOOOOOOOOOOOOOOOOOOOOOOOOOOOOOOO@OOOOOOOOOOO+OOOOOOOOOOOOO+OOOOOOOOOOOOOOOOOOOOOOOOOOOOOOOOOOOOOOOOOOOOOOOO$OOOOOOOOOOOOOOOOOOOOOOOOOOOOOOOOOOOOO",
"OOOOOO+OOOOOOOOOOOOOOOOOOOOOOOOOOOOOOOO@OOOOOOOOOOOOOOOOOOOOOOOOOOOOO+OOOOOOOOOOOOOOOOOOOOOOOOOOOOOOOOOOOOOOOOOOOOOOOO@OOOOOOOOOOOOOOOOOOOOOOOOOOOOOOOOOOOOOOOO$OOOOOOOOOOO@OOOOOOOOOOOOOOOOOOOOOOOOOOOOOOOOO+OOOOOOOOOOOOOOOOOOOOOOOOOOOOOOO+OO@OO$OOOOOO",
"OOOOOOOOOOOOOOOOOOOOOOOOOOOOOOOOOOOOOOOOOOOOOOOOOOOOOOOOOOOOOOOO$OOOOOOOOOOOOOOOOOOOOOO$$OOOOOOOOOOO$OOOOOOOOOOOOOOOOOOOOOOOOOOOOOOOOOOOOOOOOOOOOOOOOO+OOOOOOOOOO+OOOOO@OOOOOOOOOOOOOOOOOOOOO+OOOOOOOOOO$OOOOOOOOOOOOOO+OOOOOOOOOOOOOOOOOOOOOOOO$OOOOOOOO+",
"OOOOOOOOOOOOOOOOOOO+OOOOOOOOOOOOOOOOOOOOOOOOOOOO+OOOOOOOOOOOOO$OOOOOOOOOOOOOOOOOOOOOOOOOOOOOOOOOOOOOOO$OOOOOOOOOOOOO+OOOOOOOOOO@OOOOOOOOOOO$OOOOOOOOOOOOOOOOOOOOOOOOOOOOOOO@OOOOOOOOOOO$OOOOOOOOOOOOOOOOOOOOOOOOOOOOOOOOOOOOOOOOOOOOOOO@OOOOOOOOOOOOOOOO$O",
"OOOOOO$OOOOOOOOOOOOOOOOOOOOOOOOOOOOOO@@OOOOOOOOOOOOOOOOOOOOOOOOOOOOOOOOOOOOOOOOOOOOOOOOOOOOOOOOOOOOOOOO@OOOOOOOOOOOOO+OOOOOOOOOOOOOO$OOOOOOOOOOOOOOOOOO$OOO@OOOOOOOOOOOOOOOOOOO+OOOOOOOOOOOOOOOOOOOOOOOOOOOOOOOOOOOOOOOOO@OOOOOOOOOOOOOOOOOOOO+OOOOOOOOOOO",
"OOOOOOOOOO+OOOOOOOOOOOOOOOOOOOOOOOOOOOOOOOOOOOOOOOOOOOOOOOOOOOOOOOOOOOOOOOOOOOOO$OOOOOOOOOOOOOOOOOOOOOOOOO+OOOOOOOOOOOOOOOOOOOOOOOOOOOOOOOOOOOOOOOOOOOOOOOOOOOOOO+OOOOOOOOOOOOOOO$OOOOOOOOOOOOOOOOOOOOOOOOOOOOOOOOOOOOOOOOOOOOOOOOOOOOOOOOOOOOOOOOOOOOOO@O",
"OOOOOOOOOOOOOOOOOOOOOOOOOOOOOOOOOOOOOOOOOOOOOOOOOOOOOOOOO@OOOOOOOOOOOOOOOOOOOO+OOOOOOOOOOOOOOOOOOOOOOO$OOOOO+OOOOOOOOOOOOOOOOOOOOOOOOOOOOOOOOOOOOOOOOOOOOOO$OOOOOOOOOOOOOOOOOOOOOOOOOOOOOOOOOOOOOOOOOOOOOOOOOOOOOOOO$OOOOOOO$$OOOOOOOOOOOOOOOOOOOOOOOOOOOO",
"OOOOOOOOOOOOOOOOOOOOOOOOOOOOOOOOOOOOOOOOOOOOOOOOOOOOOOOOO+OOOOOOOOOOOOOOOOOOOOOO$OO@OOOOOOOOOOOOOOOOOOOOO+OOOOOOOOOOOO@OOOOOOOOOOOOOOOOOOOOOO@OOOOOOOOOOOOOOOOOOOOOOOOOOOOOOOOOOO$OOOOOOOOOOO@OOOOOOOOOOOOOOO@OOOOOOO@OOOOOOOOOOOOOOOOOOOOOOOOOOOOOO@OOOOO",
"OOOOOOOOOOOOOOOOOOOOOOOOOOOOOOOOOOOOOOOOOOOOOOOOOOOOOOOOOOOOOOOOOO$OOOOOOOOOOOOOOOOOOOOOOOOOOOOOOOOOOO+OOOOOOOOOOOOOOO+OO$OOOOO$OOOOOOO$OOOOOOOOOOOOOOOOO+OOOOOOOOOOOOOOOOOOOOOO+OOOOOOOOOOOOOOOOOOO+OOOOOOOOOOOOOOOOOOOO+OOOOOOOOOOOOOOOOOOOOOOOOOOOOOOOO",
"OOOOOOOOOOOOOOOOOOOOOOOO+OOOOOOOOOOOOOOOOOOOOOOOOOOOOOOOOOOOOOO$OO+OOOOOOOOOOOOOOOOOOOOOOOOOOOOOOOOOOOOOOOOOOOOOOOOOOOOOOOOO$OOOOOOOO+OOOOOOOOOOOOOOOOOOOOOOOOOOOOOOOOOOOOOOOOOOOOOOOOOOOOO@OOOOOOOOOOOOOOOOOOOOOOOOOOOOOOOOOOOOOOOOOOOOOOOOOOOOOOOOOOOOOO",
"OOOOOOOOOOOOOOOOOOOOOO+OOOOOOOOOOOOOOOOOOOOOOOOOOOOOOOOOOOOOOOOOOOOOOOOOOOOO@OOOOOOOOOOOOOOOOOOOOOOOOOOOOOOOOOOO+OOOOOOOOOOOOOOOOOOOOOOOOOO$OOOOOOOOOOOOOOOOOOOOOOOOOOOOO@OOOOOOOOOOOOOOOOOO+OOOOOOOOOOOOOOOOOOOOOOOOOOOOOOOOOOOOOOOOOOOOOOOOOOOOOOOOOOOOO",
"OO@OOOOOOOOOOOOOOOO+OOOOOOOO+OOOOOOOOOOOOOO+OOOOOOOOOOOOOOOOOOOOOOOOOOOOOOOOOOOOOOOOOOOOOOOOOOOOOOOOOOOOOOOOOOOOOOOOOOOOOOOOOOOOOOOOOOOOOOOOOOOOOOOOOOOOOOOOOOOOOOOOOOOOOOOOOOOOOOOOOOOO@OOO$OOOOOOOOOOOOOOOOOOOOOOOOOOOOOOOOOOOO@O+OOOOOOOOOOOOOOOOOOOOOO",
"OOOOOO$OOOOOOOOOOOOOOOOO+OOOOOOOOOOOOOOOOOOOOOOOOOOOOOOOO@OOOOOOOOOOOOOOOOOOOOOOOOOOOOOOOOOOOOOOOOOOOOOOOOOOOOOOOOOOOOOOO+OOOOOOOOOOOOOOOOOOOOOOOOOO@OOOOOOOOOOOOOOOOOOOOOOOOOOOOOOOO+OOOOOOOOOOOOOOOOOOOOOOOOOOO+OOOOOOOOOOOOOOOOOOOOOO$OOOOOOOOOOOO+OOO@",
"OOOOOOOOOOOOOOOOOOOOOOOOOOO@OOOOOOOOOOOOOOOOOOOOO@OOOOOOOOOOOOOOOOOOOOOOOOOOOOOOOOOOOOOOOOOOOOOOOOOOOOOOOOOOOOOO$OOOOOOOOOOOOOOOOOOOOOOOOOOOOOOOOOOOOOOOOOOOOOOOOOOOO+OOOOOOOOOOOOOOOOOOOOOOOOOOOOOOOOOOOOOOOOOOOOOOOOOOOOOOOOOOOOOOOOOOOOOOOOO$OOOOOOO+OO",
"OOOOOOOOOOOOOOOOOOOOOOOOOOO+OOOO$OOOOOOOOOOOOOOOOOOOOOOO$OOOOOOOOOOOOOOOOOOOOOOOOOOOOOOOOOOOOOOOOOOOOOOOOOOO@OOOOOOOOOOOOOOOOOOOOOOOOOO$OOO@OOOOOOOOOOOO$OOOO+OOOOOOOOOOOOOOOOOOOOOOOOOOOOOOOOOOOO$OOOOOOOOOOOOOOOOOOOOOOOOOOOOOOOOOOO$OOOOOOOOOOOOOOOOOOO"
};
