/* XPM */
static char *_eaeb9c608894ea9c646acce313a9cd2SkZm7AaiOqk3BGzO[] = {
/* columns rows colors chars-per-pixel */
"32 32 4 1 ",
"  c #010100",
". c #000001",
"X c #000B92",
"o c #010B92",
/* pixels */
"XXXXXXXXoooooooooooooooooooooooo",
"XXXXXXXXoooooooooooooooooooooooo",
"XX...... .....................oo",
"XX........ ...................oo",
"XX....... ....................oo",
"XX............................oo",
"XX............................oo",
"XX............................oo",
"XX.......... .....  ..........oo",
"XX............. ..............oo",
"XX............................oo",
"XX............. ..... ........oo",
"XX............. ..............oo",
"XX........... .. .............oo",
"XX................... ........oo",
"XX............... . ..........oo",
"oo.. ..... ....... ... .... ..oo",
"oo.. ................  .. .. .oo",
"oo........ ..... .......... ..oo",
"oo..... ......................oo",
"oo..... . .... ...............oo",
"oo.................... .......oo",
"oo...... .... ... ... ........oo",
"oo........... ................oo",
"oo... . ......................oo",
"oo.................... .......oo",
"oo.............. .............oo",
"oo............................oo",
"oo............................oo",
"oo............... ............oo",
"oooooooooooooooooooooooooooooooo",
"oooooooooooooooooooooooooooooooo"
};
